<svg version="1.1" viewBox="0.0 0.0 189.77165354330708 192.04461942257217" fill="none" stroke="none" stroke-linecap="square" stroke-miterlimit="10" xmlns:xlink="http://www.w3.org/1999/xlink" xmlns="http://www.w3.org/2000/svg"><clipPath id="p.0"><path d="m0 0l189.77165 0l0 192.04462l-189.77165 0l0 -192.04462z" clip-rule="nonzero"/></clipPath><g clip-path="url(#p.0)"><path fill="#000000" fill-opacity="0.0" d="m0 0l189.77165 0l0 192.04462l-189.77165 0z" fill-rule="evenodd"/><defs><linearGradient id="p.1" gradientUnits="userSpaceOnUse" gradientTransform="matrix(12.436512591972294 0.0 0.0 12.436512591972294 0.0 0.0)" spreadMethod="pad" x1="1.365322545511989" y1="1.5015328317834145" x2="1.3627897915815483" y2="13.938045165852117"><stop offset="0.0" stop-color="#ffffff"/><stop offset="1.0" stop-color="#ffae85"/></linearGradient></defs><path fill="url(#p.1)" d="m16.979845 44.4786l0 0c0 -14.234056 11.5389805 -25.773037 25.773035 -25.773037l104.26456 0l0 0c6.835434 0 13.390915 2.7153664 18.224289 7.548748c4.8333893 4.8333817 7.548752 11.388855 7.548752 18.224289l0 103.08904c0 14.234055 -11.538986 25.77304 -25.77304 25.77304l-104.26456 0c-14.234055 0 -25.773035 -11.538986 -25.773035 -25.77304z" fill-rule="evenodd"/><path stroke="#f76820" stroke-width="8.561679790026247" stroke-linejoin="round" stroke-linecap="butt" d="m16.979845 44.4786l0 0c0 -14.234056 11.5389805 -25.773037 25.773035 -25.773037l104.26456 0l0 0c6.835434 0 13.390915 2.7153664 18.224289 7.548748c4.8333893 4.8333817 7.548752 11.388855 7.548752 18.224289l0 103.08904c0 14.234055 -11.538986 25.77304 -25.77304 25.77304l-104.26456 0c-14.234055 0 -25.773035 -11.538986 -25.773035 -25.77304z" fill-rule="evenodd"/><path fill="#ffae85" d="m55.60154 40.29562c-3.3515358 0 -5.767761 0.19339752 -7.2486725 0.5801964c-2.1823997 0.6188736 -3.9750824 1.5214005 -5.3780518 2.7075806c-1.4029655 1.1732864 -2.585102 2.7462616 -3.5463943 4.7189293c-0.9483032 1.9726677 -1.5978241 4.5835495 -1.9485664 7.832649c-0.19485855 2.050026 -0.3117714 6.304798 -0.35074234 12.764317c-0.038970947 6.4595184 -0.3702278 11.023727 -0.9937706 13.692627c-0.6235428 2.6689072 -1.8836174 4.770508 -3.78022 6.304802c-1.8836193 1.5214005 -4.325823 2.3207855 -7.326618 2.39814l0 9.457199c3.0007954 0.07736206 5.442999 0.8896332 7.326618 2.4368286c1.8966026 1.5471878 3.1566772 3.6552353 3.78022 6.324135c0.6235428 2.6688995 0.95479965 7.4845276 0.9937706 14.446884c0.038970947 6.962349 0.29877853 11.971382 0.7794266 15.027077c0.49363708 3.0557098 1.558857 5.5763397 3.195652 7.5618896c1.6367989 1.9984589 3.702282 3.442505 6.1964493 4.332138c1.7147369 0.6188812 4.4817047 0.9283142 8.3008995 0.9283142l3.273594 0l0 -9.109085l-1.8121681 0c-3.7022781 0 -6.189953 -0.522171 -7.4630165 -1.5665283c-1.2600746 -1.0443573 -2.0459976 -2.8816376 -2.357769 -5.511856c-0.15588379 -1.4311523 -0.23382568 -5.9179993 -0.23382568 -13.460556c0 -8.316147 -0.9677925 -14.2986145 -2.903366 -17.947403c-1.9225922 -3.6616821 -5.0273056 -6.3821564 -9.314159 -8.161423c3.62434 -1.740593 6.280884 -3.7325974 7.9696465 -5.976021c1.7017479 -2.243431 2.903366 -5.4345093 3.6048508 -9.573242c0.42868423 -2.6688995 0.64302826 -9.070396 0.64302826 -19.20449c0 -5.028366 0.66251373 -8.264572 1.9875374 -9.708618c1.3250275 -1.4569359 4.0140533 -2.1854057 8.067074 -2.1854057l1.8121681 0l0 -9.109077z" fill-rule="evenodd"/><path fill="#ffae85" d="m130.95267 40.29562l0 9.109077l1.8121796 0c3.7022705 0 6.1834564 0.5157318 7.443527 1.5471916c1.273056 1.0185661 2.04599 2.8236198 2.3188019 5.415165c0.19485474 1.4698296 0.2922821 5.976021 0.2922821 13.518574c0 8.316139 0.91581726 14.227699 2.7474823 17.734657c1.8316498 3.494072 4.988327 6.304802 9.470032 8.43219c-3.4294739 1.4311447 -6.079529 3.4360428 -7.9501495 6.014694c-1.870636 2.5657578 -3.1177063 5.9953613 -3.7412567 10.288818c-0.35073853 2.5915375 -0.5261078 8.722282 -0.5261078 18.392212c0 5.067047 -0.66252136 8.322601 -1.9875488 9.766647c-1.3250275 1.4569397 -4.014038 2.1853943 -8.067062 2.1853943l-1.8121796 0l0 9.109085l3.2736053 0c3.351532 0 5.767761 -0.21273804 7.2486725 -0.6382141c2.1823883 -0.6188812 3.9750824 -1.5214081 5.3780518 -2.7075806c1.4029694 -1.1732788 2.578598 -2.7398224 3.5269012 -4.6996c0.96128845 -1.9468689 1.6173096 -4.564209 1.9680481 -7.8519745c0.19487 -2.0500336 0.31178284 -6.3048096 0.35075378 -12.76432c0.038970947 -6.4595184 0.370224 -11.010841 0.99375916 -13.653954c0.6235504 -2.6560135 1.877121 -4.7576065 3.7607422 -6.3047943c1.8966064 -1.5471954 4.3453064 -2.3594666 7.3461 -2.4368286l0 -9.457199c-3.0007935 -0.07735443 -5.4494934 -0.8896332 -7.3461 -2.436821c-1.8836212 -1.5471878 -3.1371918 -3.6423416 -3.7607422 -6.2854614c-0.62353516 -2.6560059 -0.9547882 -7.465187 -0.99375916 -14.427544c-0.038970947 -6.9623528 -0.3052826 -11.971378 -0.7989197 -15.027081c-0.48065186 -3.0556984 -1.5393677 -5.589222 -3.1761627 -7.6005707c-1.636795 -2.011345 -3.7022858 -3.4424973 -6.1964417 -4.2934494c-1.7147522 -0.6188774 -4.48172 -0.9283142 -8.300903 -0.9283142z" fill-rule="evenodd"/><path fill="#ff935d" d="m55.252407 70.96704l0 0c0 -7.3180923 5.9324875 -13.25058 13.250584 -13.25058l53.000748 0l0 0c3.5142746 0 6.884613 1.396038 9.369583 3.8810043c2.48497 2.48497 3.881012 5.8553085 3.881012 9.3695755l0 54.00966c0 7.3181 -5.932495 13.250595 -13.250595 13.250595l-53.000748 0c-7.318096 0 -13.250584 -5.932495 -13.250584 -13.250595z" fill-rule="evenodd"/><defs><linearGradient id="p.2" gradientUnits="userSpaceOnUse" gradientTransform="matrix(9.271239282334006 0.0 0.0 9.271239282334006 0.0 0.0)" spreadMethod="pad" x1="5.762738129753572" y1="5.7212996186757605" x2="5.7627044012472775" y2="14.992538900948418"><stop offset="0.0" stop-color="#ffece3"/><stop offset="1.0" stop-color="#ffc0a0"/></linearGradient></defs><path fill="url(#p.2)" d="m98.57062 53.173843c-0.4478836 -0.2085495 -1.8728943 -0.12061691 -2.5214996 -0.04851532c-0.64860535 0.07209778 -1.1486816 0.09770203 -1.3701248 0.48110962c-0.2214508 0.38340378 0.03453827 1.1455002 0.0414505 1.8193245c0.006904602 0.6738205 0 1.3233871 0 2.2236176c0 0.9002266 0 1.9261246 0 3.1777496c0 1.2516289 0 3.13665 0 4.332012c0 1.1953659 0.080207825 2.2226105 0 2.8401642c-0.080215454 0.61756134 -0.2824707 0.7048187 -0.48127747 0.8651886c-0.19879913 0.16036987 -0.36421204 0.13712311 -0.71154785 0.09703064c-0.3473282 -0.04009247 -0.99746704 -0.20922089 -1.3724289 -0.33758545c-0.37496185 -0.12836456 -0.5211868 -0.32848358 -0.8773422 -0.4325943c-0.3561554 -0.10410309 -0.73880005 -0.15194702 -1.2595978 -0.19203949c-0.52080536 -0.04009247 -1.1521378 -0.08860779 -1.8652191 -0.04851532c-0.71308136 0.04009247 -1.7827072 0.14453888 -2.413269 0.28907013c-0.63056946 0.14453888 -0.8309021 0.28940582 -1.3701324 0.57814026c-0.5392227 0.28873444 -1.3444138 0.73716736 -1.8652191 1.1542587c-0.5207977 0.417099 -0.7752533 0.6583252 -1.2595978 1.3483276c-0.48433685 0.6899948 -1.3083344 1.8368378 -1.6464539 2.7916489c-0.3381195 0.95480347 -0.40988922 2.0066452 -0.38225555 2.9371948c0.027633667 0.9305496 0.16426086 1.7556458 0.5480499 2.646103c0.38378906 0.89045715 1.0784531 1.950386 1.7546921 2.6966476c0.6762314 0.74625397 1.5716171 1.3557281 2.3027344 1.7809143c0.73111725 0.42517853 1.3256073 0.6418152 2.0839767 0.77017975c0.75836945 0.12836456 1.7443237 0.04009247 2.4662323 0c0.72190857 -0.04009247 1.2895355 -0.0879364 1.8652191 -0.24055481c0.5756836 -0.15262604 1.0953369 -0.47437286 1.5888901 -0.6751709c0.49355316 -0.20079803 0.97943115 -0.5218811 1.3724289 -0.52962494c0.39300537 -0.007751465 0.8028946 0.05794525 0.9855728 0.4831314c0.18268585 0.42517853 0.09210968 1.4665756 0.11053467 2.0679626c0.018424988 0.601387 0 0.2968216 0 1.5403595c0 1.2435379 0.06409454 4.749443 0 5.920891c-0.06409454 1.1714401 0.26442719 0.92313385 -0.38455963 1.1077652c-0.6489868 0.18462372 -2.2117767 0 -3.509369 0c-1.2975922 0 -3.1063995 0 -4.276184 0c-1.1697922 0 -1.8652191 -0.07210541 -2.7425613 0c-0.87734985 0.07209778 -1.836052 0.15969086 -2.5214996 0.4325943c-0.6854477 0.2728958 -1.1797714 0.7071762 -1.5911942 1.2047958c-0.41142273 0.49761963 -0.6854477 1.0430756 -0.8773422 1.7809143c-0.19189453 0.73783875 -0.32891083 1.8840103 -0.27402496 2.646103c0.054878235 0.7620926 0.40220642 1.2283783 0.60331726 1.9264603c0.20110321 0.698082 0.5119705 1.467926 0.60331726 2.2620316c0.09133911 0.7940979 0.2463913 1.6923065 -0.055267334 2.5025787c-0.30165863 0.8102722 -1.0784531 1.9096146 -1.7546844 2.3590546c-0.676239 0.44944 -1.5900421 0.39351654 -2.302742 0.33758545c-0.7126999 -0.055923462 -1.5075226 -0.3443222 -1.9734421 -0.6731491c-0.46592712 -0.3288269 -0.611763 -0.7620926 -0.8220825 -1.2998047c-0.21031189 -0.5377121 -0.3665161 -1.3247375 -0.43981934 -1.9264603c-0.07330322 -0.60173035 -0.12818909 -1.1465149 0 -1.6838837c0.12818146 -0.5373764 0.5680084 -0.8823776 0.76911163 -1.5403671c0.20110321 -0.6579819 0.42830658 -1.5248566 0.4375229 -2.40757c0.009208679 -0.8827057 -0.062561035 -2.1023254 -0.38225555 -2.8886795c-0.31969452 -0.78635406 -0.9874954 -1.3803253 -1.5359268 -1.8294296c-0.548439 -0.4491043 -1.0692368 -0.72099304 -1.7546844 -0.8651886c-0.6854477 -0.14420319 -1.206253 0 -2.3580093 0c-1.1517487 0 -2.8250732 0 -4.552513 0c-1.7274361 0 -4.4688454 0 -5.812111 0c-1.3432617 0 -1.6909752 -0.042793274 -2.2474709 0c-0.55649567 0.042785645 -0.97214127 0.009429932 -1.0914993 0.2567215c-0.11935806 0.2472992 0.31278992 0.7162781 0.37534714 1.2270355c0.06255722 0.51075745 -0.22988892 1.477356 0 1.8375168c0.22988892 0.36016083 0.675087 0.26953125 1.3793411 0.32343292c0.70425415 0.0539093 1.174778 0 2.8461838 0c1.6714058 0 5.555355 0 7.1822433 0c1.6268845 0 1.9757462 -0.058280945 2.5790634 0c0.60331726 0.058288574 0.8489456 0.098716736 1.0408401 0.3497162c0.19189453 0.25099945 0.17462158 0.65091705 0.11052704 1.1562805c-0.064086914 0.5053711 -0.30319214 1.1781845 -0.49508667 1.8759232c-0.19189453 0.6977463 -0.5557251 1.452095 -0.6562805 2.3105469c-0.10055542 0.8584442 -0.047592163 1.9736252 0.052963257 2.8401642c0.10055542 0.866539 0.25790405 1.6289673 0.550354 2.3590546c0.29244995 0.7300873 0.7199936 1.4278336 1.2043304 2.021469c0.48434448 0.5936432 1.034317 1.1471863 1.7017288 1.5403595c0.6674042 0.39318085 1.3708954 0.682251 2.3027344 0.81869507c0.9318466 0.13645172 2.3560867 0.12836456 3.2883148 0c0.93222046 -0.12835693 1.5647049 -0.3769989 2.3050385 -0.77017975c0.74033356 -0.39317322 1.5247955 -0.9632263 2.13694 -1.5888748c0.6121445 -0.62564087 1.1701736 -1.3547211 1.5359268 -2.1649933c0.36575317 -0.8102722 0.5852814 -1.7418365 0.6585846 -2.69664c0.07330322 -0.9548111 -0.07254028 -2.1656723 -0.21875763 -3.0322113c-0.14622498 -0.8665314 -0.48472595 -1.493187 -0.6585846 -2.167015c-0.17385864 -0.6738205 -0.4302292 -1.4187317 -0.38455963 -1.8759232c0.045669556 -0.45719147 0.27479553 -0.7226715 0.6585846 -0.8672104c0.38378906 -0.14453125 0.7303543 0 1.6441574 0c0.9138031 0 2.559105 0 3.8386612 0c1.2795563 0 2.8791885 0 3.8386688 0c0.95947266 0 1.5343857 -0.16036987 1.9181747 0c0.38378906 0.16036987 0.3204651 0.47268677 0.38455963 0.96221924c0.06409454 0.48953247 0 1.0363388 0 1.9749756c0 0.9386368 0 2.357376 0 3.656845c0 1.299469 0 3.0648804 0 4.139969c0 1.0750885 -0.11897278 1.6205444 0 2.3105392c0.11897278 0.6899948 0.42140198 1.2998047 0.7138519 1.8294296c0.29244232 0.52962494 0.6113739 0.96323395 1.0408325 1.3483276c0.42946625 0.38508606 0.83206177 0.78567505 1.5359268 0.96221924c0.7038727 0.17653656 1.9838104 0.16912842 2.6873016 0.09703064c0.7034836 -0.07210541 0.93068695 -0.42518616 1.5336227 -0.52962494c0.60292816 -0.10444641 1.4714508 -0.18530273 2.0839767 -0.09703064c0.61252594 0.088264465 1.079216 0.28165436 1.5911942 0.6266556c0.5119705 0.3449936 1.124115 0.9140396 1.4806595 1.4433289c0.35653687 0.52928925 0.56723785 1.1465073 0.6585846 1.732399c0.09133911 0.5858917 0.054107666 1.2051315 -0.11053467 1.7829361c-0.16464233 0.57780457 -0.4659195 1.2509537 -0.8773422 1.6838837c-0.41142273 0.43293 -1.0427551 0.7132416 -1.5911942 0.9137039c-0.5484314 0.20046234 -1.059639 0.30490875 -1.6994171 0.28907013c-0.63977814 -0.015830994 -1.5270996 -0.2398758 -2.139244 -0.38407898c-0.6121445 -0.14419556 -0.9947891 -0.40866852 -1.5336227 -0.48110962c-0.53884125 -0.07243347 -1.141777 -0.073783875 -1.6994247 0.04649353c-0.5576477 0.120277405 -1.2166138 0.37026978 -1.6464615 0.6751709c-0.4298401 0.30490875 -0.6221161 0.63272095 -0.9326019 1.1542587c-0.31048584 0.5215454 -0.7660446 1.2125473 -0.9303131 1.9749832c-0.16426086 0.7624283 -0.046051025 0.9150467 -0.055259705 2.5996094c-0.009216309 1.684555 0 5.991638 0 7.507736c0 1.5161133 -0.12780762 1.2438812 0 1.5888824c0.12779999 0.34500122 0.3649826 0.48110962 0.76680756 0.48110962c0.40183258 0 1.1049347 -0.33691406 1.6441574 -0.48110962c0.5392227 -0.14419556 1.3259964 -0.03907776 1.5911942 -0.38407898c0.26519775 -0.34500122 0 -0.9797363 0 -1.6859131c0 -0.7061615 0 -1.2593689 0 -2.5510864c0 -1.2917328 -0.045677185 -4.0520477 0 -5.199234c0.045669556 -1.1471786 0.08213043 -1.3550568 0.27402496 -1.683876c0.19189453 -0.3288269 0.48434448 -0.3291626 0.8773422 -0.28907013c0.39299774 0.04009247 0.94143677 0.41742706 1.4806595 0.52962494c0.5392227 0.11219025 1.1241226 0.14352417 1.7546844 0.14352417c0.63056946 0 1.3432693 -0.03942108 2.028717 -0.14352417c0.6854477 -0.10411072 1.3436432 -0.2082138 2.0839767 -0.48110962c0.74033356 -0.27290344 1.7182236 -0.66674805 2.3580017 -1.1562881c0.63977814 -0.48953247 1.0604172 -0.96255493 1.4806595 -1.7809143c0.42024994 -0.8183594 0.8946152 -2.2226028 1.0408401 -3.1292343c0.14622498 -0.90663147 -0.026481628 -1.532608 -0.1634903 -2.3105392c-0.1370163 -0.7779312 -0.3477173 -1.6592941 -0.6585846 -2.3570328c-0.3108673 -0.6977463 -0.73150635 -1.3399048 -1.2066345 -1.8294373c-0.4751358 -0.48953247 -1.013588 -0.74658966 -1.6441574 -1.1077652c-0.63056946 -0.3611679 -1.2162323 -0.8507004 -2.139244 -1.0592499c-0.9230118 -0.2085495 -2.3752747 -0.20820618 -3.3988419 -0.19203949c-1.0235672 0.016174316 -2.0751495 0.24897766 -2.7425613 0.28907013c-0.6674118 0.04009247 -1.0515823 0.28031158 -1.2619019 -0.04851532c-0.21031189 -0.3288269 0 -1.3227158 0 -1.9244385c0 -0.6017227 0 -0.78736115 0 -1.6859055c0 -0.8985443 0 -2.5261612 0 -3.7053528c0 -1.1791916 0 -2.4149857 0 -3.3697968c0 -0.95480347 -0.1097641 -1.8856964 0 -2.3590546c0.1097641 -0.47335815 0.26558685 -0.40092468 0.6585846 -0.48110962c0.39299774 -0.08018494 0.8220749 0 1.6994247 0c0.8773422 0 2.4769745 0 3.5646362 0c1.0876617 0 2.1937408 -0.023918152 2.961319 0c0.7675781 0.023918152 1.3152466 -0.016845703 1.6441574 0.14352417c0.32891083 0.16036987 0.35653687 0.47370148 0.3292923 0.81869507c-0.027252197 0.34500122 -0.33773804 0.7139206 -0.49279022 1.2512894c-0.15504456 0.5373764 -0.31854248 1.2266998 -0.43751526 1.9729538c-0.11898041 0.7462616 -0.29436493 1.5737152 -0.27632904 2.5046082c0.018035889 0.9308853 0.12857056 2.166336 0.38455963 3.080719c0.25598145 0.9143753 0.6942749 1.7236404 1.1513672 2.405548c0.4570923 0.68190765 0.9421997 1.196373 1.5911942 1.6859055c0.6489868 0.48953247 1.461853 1.0188217 2.3027344 1.2512894c0.84088135 0.23247528 1.9657745 0.16778564 2.7425613 0.14352417c0.77679443 -0.024253845 1.251152 -0.08860779 1.9181824 -0.28907013c0.6670227 -0.20046234 1.4077377 -0.4645996 2.0839767 -0.9137039c0.676239 -0.4491043 1.4891052 -1.2031097 1.9734497 -1.7809143c0.48433685 -0.57780457 0.65857697 -1.027916 0.93260956 -1.6859055c0.27402496 -0.6579895 0.6474533 -1.4116592 0.7115402 -2.262024c0.06409454 -0.8503647 -0.18076324 -2.0059738 -0.32698822 -2.8401642c-0.14622498 -0.834198 -0.36728668 -1.5555267 -0.550354 -2.165001c-0.18306732 -0.6094742 -0.47512817 -1.0265656 -0.5480499 -1.4918442c-0.07292175 -0.465271 -0.113983154 -1.0346527 0.11053467 -1.2998047c0.2245102 -0.26515198 0.43252563 -0.2425766 1.2365646 -0.29109192c0.804039 -0.04851532 2.1580505 0 3.5876694 0c1.4296188 0 3.7285233 0 4.9900284 0c1.2615204 0 1.9941711 0.12802887 2.579071 0c0.5848999 -0.12802887 0.8025055 -0.40732574 0.9303131 -0.76815796c0.12779236 -0.3608322 -0.035690308 -0.9554825 -0.16349792 -1.3968353c-0.12780762 -0.44135284 -0.42063904 -0.94638824 -0.60331726 -1.2512894c-0.18269348 -0.30490875 0.082901 -0.48178864 -0.4927826 -0.57814026c-0.5756836 -0.09635925 -1.9285431 0 -2.9613342 0c-1.0327759 0 -2.092804 0 -3.2353363 0c-1.1425476 0 -2.6055527 0 -3.6199112 0c-1.0143509 0 -1.6986542 -0.13645172 -2.4662323 0c-0.7675781 0.13644409 -1.5359268 0.40934753 -2.139244 0.81869507c-0.60331726 0.40934753 -1.160965 1.0036621 -1.4806595 1.6373901c-0.31969452 0.633728 -0.401062 1.4591675 -0.4375229 2.1649933c-0.036453247 0.70583344 0.063713074 1.4601746 0.21876526 2.0699844c0.15505219 0.6098099 0.528862 0.99523926 0.71154785 1.5888748c0.18267822 0.5936432 0.32045746 1.3793182 0.384552 1.9729614c0.06409454 0.59363556 0.054885864 1.0754166 0 1.5888748c-0.054878235 0.5134506 -0.12818146 1.0424042 -0.3292923 1.4918442c-0.20110321 0.44944 -0.4206314 0.8675461 -0.8773422 1.2047958c-0.45671082 0.33724976 -1.1225815 0.75468445 -1.862915 0.81869507c-0.7403259 0.06401062 -1.9024429 -0.08961487 -2.5790634 -0.4346161c-0.6766205 -0.3449936 -1.1517563 -1.1138306 -1.4806595 -1.6353683c-0.32891083 -0.5215378 -0.42907715 -0.89214325 -0.49279022 -1.493866c-0.063705444 -0.6017227 -0.00844574 -1.4507446 0.11053467 -2.116478c0.11897278 -0.66574097 0.41142273 -1.2681427 0.60331726 -1.8779526c0.19189453 -0.6098099 0.45671082 -1.0909195 0.5480499 -1.7809143c0.09133911 -0.6899948 0.1097641 -1.7253265 0 -2.3590546c-0.1097641 -0.633728 -0.3477173 -0.9699707 -0.6585846 -1.4433289c-0.3108673 -0.47336578 -0.740715 -1.1077652 -1.2066345 -1.3968353c-0.4659195 -0.28907013 -1.0132065 -0.24931335 -1.5888901 -0.33758545c-0.5756836 -0.088272095 -0.35730743 -0.16003418 -1.8652191 -0.19203949c-1.507904 -0.03200531 -5.6835403 0.008087158 -7.1822357 0c-1.498703 -0.008087158 -1.3766556 0.026275635 -1.8099594 -0.04851532c-0.4332962 -0.074798584 -0.6581955 0.16104126 -0.78983307 -0.4002533c-0.1316452 -0.56129456 0 -1.6144791 0 -2.9675217c0 -1.353035 0.014579773 -3.8266373 0 -5.1507034c-0.014587402 -1.3240662 0.036842346 -2.0554962 -0.087509155 -2.7936707c-0.12434387 -0.73817444 -0.31124878 -1.138092 -0.65857697 -1.6353683c-0.34733582 -0.49728394 -0.8677521 -1.0353317 -1.4253998 -1.3483276c-0.5576477 -0.31298828 -1.271492 -0.44944 -1.9204788 -0.52962494c-0.64899445 -0.08018494 -1.2972107 -0.055923462 -1.9734497 0.04851532c-0.676239 0.10444641 -1.4718323 0.39351654 -2.0839767 0.57814026c-0.6121445 0.18463135 -0.9767456 0.42552185 -1.5888901 0.52962494c-0.6121445 0.10411072 -1.4990845 0.21562958 -2.0839767 0.09500885c-0.5848999 -0.1206131 -0.9683075 -0.481781 -1.4253998 -0.81869507c-0.4570923 -0.33690643 -1.0062943 -0.78567505 -1.3171616 -1.202774c-0.31087494 -0.41709137 -0.41104126 -0.7782669 -0.54805756 -1.2998047c-0.13700867 -0.5215378 -0.3289032 -1.2118683 -0.27402496 -1.8294296c0.054885864 -0.61756134 0.31087494 -1.3547211 0.60331726 -1.8759232c0.29244995 -0.5212021 0.77679443 -0.9062958 1.1513748 -1.2512894c0.37457275 -0.34500122 0.7031021 -0.5858917 1.0960999 -0.81869507c0.39299774 -0.23281097 0.7775574 -0.47370148 1.2619019 -0.57814026c0.48434448 -0.10444641 1.1598129 -0.12870026 1.6441574 -0.04851532c0.48433685 0.08018494 0.7499237 0.35308075 1.2618942 0.52962494c0.51197815 0.17653656 1.1245041 0.4332657 1.8099518 0.52962494c0.6854553 0.09635162 1.6172943 0.104774475 2.302742 0.04851532c0.6854477 -0.056266785 1.2434769 -0.113204956 1.8099518 -0.38610077c0.5664749 -0.27290344 1.1686401 -0.7459259 1.5888901 -1.2512894c0.42024994 -0.5053711 0.7587509 -1.0909271 0.93260956 -1.7809219c0.17385864 -0.6899948 0.09210968 -1.564949 0.11052704 -2.3590546c0.018424988 -0.7940979 0 -1.0336456 0 -2.405548c0 -1.3719063 0 -4.3336945 0 -5.825878c0 -1.4921837 0 -2.3812943 0 -3.1272163c0 -0.7459221 0.027633667 -0.92313766 0 -1.34832c-0.027626038 -0.42518234 0.28208923 -0.99422455 -0.16579437 -1.202774z" fill-rule="evenodd"/></g></svg>