<svg version="1.1" viewBox="0.0 0.0 960.0 540.0" fill="none" stroke="none" stroke-linecap="square" stroke-miterlimit="10" xmlns:xlink="http://www.w3.org/1999/xlink" xmlns="http://www.w3.org/2000/svg"><clipPath id="g3a3c7b5fccb_0_206.0"><path d="m0 0l960.0 0l0 540.0l-960.0 0l0 -540.0z" clip-rule="nonzero"/></clipPath><g clip-path="url(#g3a3c7b5fccb_0_206.0)"><defs><linearGradient id="g3a3c7b5fccb_0_206.1" gradientUnits="userSpaceOnUse" gradientTransform="matrix(23.242106579261463 0.0 0.0 23.242106579261463 0.0 0.0)" spreadMethod="pad" x1="1.7130817638910854E-6" y1="-0.008411760736123021" x2="-0.004731615683309229" y2="23.23369433654662"><stop offset="0.0" stop-color="#ffffff"/><stop offset="1.0" stop-color="#ffae85"/></linearGradient></defs><path fill="url(#g3a3c7b5fccb_0_206.1)" d="m0 0l960.0 0l0 540.0l-960.0 0z" fill-rule="evenodd"/><path fill="#ffae85" fill-opacity="0.4667" d="m44.577427 52.396324l-32.622047 45.721786l-3.9553804 -9.813652l36.577427 -75.48031l36.89764 75.66929l-4.813652 9.089241z" fill-rule="evenodd"/><path fill="#ffae85" fill-opacity="0.4667" d="m44.577427 113.69029l-32.622047 45.721786l-3.9553804 -9.81366l36.577427 -75.48031l36.89764 75.66929l-4.813652 9.089249z" fill-rule="evenodd"/><path fill="#ffae85" fill-opacity="0.4667" d="m44.577427 174.98425l-32.622047 45.721786l-3.9553804 -9.813644l36.577427 -75.480316l36.89764 75.66928l-4.813652 9.089249z" fill-rule="evenodd"/><path fill="#ffae85" fill-opacity="0.4667" d="m44.577427 236.27821l-32.622047 45.721786l-3.9553804 -9.81366l36.577427 -75.4803l36.89764 75.6693l-4.813652 9.089233z" fill-rule="evenodd"/><path fill="#ffae85" fill-opacity="0.4667" d="m44.577427 297.57217l-32.622047 45.7218l-3.9553804 -9.81366l36.577427 -75.480316l36.89764 75.66928l-4.813652 9.089264z" fill-rule="evenodd"/><path fill="#ffae85" fill-opacity="0.4667" d="m44.577427 358.86615l-32.622047 45.72177l-3.9553804 -9.813629l36.577427 -75.480316l36.89764 75.66928l-4.813652 9.089233z" fill-rule="evenodd"/><path fill="#ffae85" fill-opacity="0.4667" d="m44.577427 420.1601l-32.622047 45.7218l-3.9553804 -9.81366l36.577427 -75.480316l36.89764 75.66931l-4.813652 9.089233z" fill-rule="evenodd"/><path fill="#ffae85" fill-opacity="0.4667" d="m44.577427 481.45407l-32.622047 45.72177l-3.9553804 -9.81366l36.577427 -75.480286l36.89764 75.66931l-4.813652 9.089233z" fill-rule="evenodd"/><path fill="#ffae85" fill-opacity="0.4667" d="m44.577427 -8.897637l-32.622047 45.721783l-3.9553804 -9.813648l36.577427 -75.480316l36.89764 75.6693l-4.813652 9.089241z" fill-rule="evenodd"/><path fill="#ffae85" fill-opacity="0.4667" d="m915.10236 52.396324l-32.62207 45.721786l-3.9553223 -9.813652l36.577393 -75.48031l36.897644 75.66929l-4.8136597 9.089241z" fill-rule="evenodd"/><path fill="#ffae85" fill-opacity="0.4667" d="m915.10236 113.69029l-32.62207 45.721786l-3.9553223 -9.81366l36.577393 -75.48031l36.897644 75.66929l-4.8136597 9.089249z" fill-rule="evenodd"/><path fill="#ffae85" fill-opacity="0.4667" d="m915.10236 174.98425l-32.62207 45.721786l-3.9553223 -9.813644l36.577393 -75.480316l36.897644 75.66928l-4.8136597 9.089249z" fill-rule="evenodd"/><path fill="#ffae85" fill-opacity="0.4667" d="m915.10236 236.27821l-32.62207 45.721786l-3.9553223 -9.81366l36.577393 -75.4803l36.897644 75.6693l-4.8136597 9.089233z" fill-rule="evenodd"/><path fill="#ffae85" fill-opacity="0.4667" d="m915.10236 297.57217l-32.62207 45.7218l-3.9553223 -9.81366l36.577393 -75.480316l36.897644 75.66928l-4.8136597 9.089264z" fill-rule="evenodd"/><path fill="#ffae85" fill-opacity="0.4667" d="m915.10236 358.86615l-32.62207 45.72177l-3.9553223 -9.813629l36.577393 -75.480316l36.897644 75.66928l-4.8136597 9.089233z" fill-rule="evenodd"/><path fill="#ffae85" fill-opacity="0.4667" d="m915.10236 420.1601l-32.62207 45.7218l-3.9553223 -9.81366l36.577393 -75.480316l36.897644 75.66931l-4.8136597 9.089233z" fill-rule="evenodd"/><path fill="#ffae85" fill-opacity="0.4667" d="m915.10236 481.45407l-32.62207 45.72177l-3.9553223 -9.81366l36.577393 -75.480286l36.897644 75.66931l-4.8136597 9.089233z" fill-rule="evenodd"/><path fill="#ffae85" fill-opacity="0.4667" d="m915.10236 -8.897637l-32.62207 45.721783l-3.9553223 -9.813648l36.577393 -75.480316l36.897644 75.6693l-4.8136597 9.089241z" fill-rule="evenodd"/><path fill="#ff935d" d="m135.98651 176.09706l-4.317215 86.459335l15.5889435 0l0.5419159 -36.671097c0.08430481 -3.4518738 0.10235596 -6.5788727 0.05418396 -9.380981c-0.036117554 -2.8156433 -0.09031677 -5.4485474 -0.16256714 -7.898697c-0.072265625 -2.4636993 -0.19268799 -4.907089 -0.36128235 -7.3301697c-0.15655518 -2.436615 -0.34924316 -5.0289154 -0.57803345 -7.7768707l0 0l9.320862 54.336594l13.764511 0l8.652496 -54.336594l0 0c-0.18063354 2.8697968 -0.35525513 5.522995 -0.5238342 7.9596252c-0.16859436 2.436615 -0.28903198 4.8529205 -0.36128235 7.248932c-0.072250366 2.3824768 -0.12042236 4.9273834 -0.14450073 7.634735c-0.012054443 2.6938171 0.018051147 5.7666626 0.09031677 9.218536l0.93930054 36.995987l15.877975 0l-4.3352814 -86.459335l-18.695908 0l-8.11058 55.900085l-8.544128 -55.900085z" fill-rule="evenodd"/><path fill="#ff935d" d="m236.82529 232.5454l0 10.741425c-1.0838165 2.3283234 -2.661377 4.128708 -4.7326813 5.401169c-2.0713043 1.2589111 -4.0462646 1.888382 -5.924881 1.888382c-2.4807434 0 -4.413559 -0.717453 -5.7984467 -2.1523438c-1.3848877 -1.434906 -2.0773163 -3.4180298 -2.0773163 -5.949417c0 -3.248825 1.1440277 -5.7125244 3.4320984 -7.391083c2.2880707 -1.6920929 5.8767242 -2.5381317 10.765945 -2.5381317zm-8.887329 -38.41736c-3.2514648 0 -6.942459 0.41964722 -11.073029 1.2589264c-4.118515 0.8257446 -8.086517 2.0508118 -11.903961 3.675232l4.0462646 13.096817c2.9624329 -1.1235504 5.924881 -1.9831238 8.887329 -2.5787506c2.9624329 -0.6091614 5.382965 -0.9137268 7.2615967 -0.9137268c3.8174438 0 6.7136536 0.8325043 8.688629 2.497528c1.9869995 1.6650238 2.9804993 4.22348 2.9804993 7.675354l0 2.4772186l-7.9480133 0c-9.092041 0 -16.148926 1.95607 -21.170624 5.8681946c-5.009659 3.9121246 -7.514496 9.462204 -7.514496 16.650223c0 6.118622 1.800354 11.120468 5.4010468 15.005524c3.612732 3.8850403 8.453796 5.8275757 14.523193 5.8275757c3.660904 0 7.2495575 -0.73776245 10.765945 -2.2132874c3.5164032 -1.4754944 6.4005737 -3.72937 8.652496 -6.7615967c1.3728333 2.7479553 3.2514648 4.7987976 5.6358643 6.152466c2.3844147 1.3536682 5.316742 2.2132568 8.797012 2.5787354l3.5946655 -12.974976c-1.3608093 -0.582077 -2.3482666 -1.434906 -2.9624329 -2.5584564c-0.61416626 -1.1235504 -0.9212494 -2.9307098 -0.9212494 -5.4214783l0 -25.949982c0 -7.5670624 -2.10141 -13.354019 -6.3042297 -17.3609c-4.1907654 -4.0204315 -10.669617 -6.0306396 -19.436508 -6.0306396z" fill-rule="evenodd"/><path fill="#ff935d" d="m288.20572 167.93439l-17.539825 2.050827l0 92.57118l17.539825 0l0 -94.62201zm20.032623 28.386612l-19.364258 29.929794l19.364258 36.305603l19.978424 0l-20.971924 -36.93506l19.364258 -29.300339z" fill-rule="evenodd"/><path fill="#ff935d" d="m363.3399 207.3467c3.7331543 0 6.4125977 1.4552002 8.03833 4.3656006c1.6377563 2.9104156 2.4747314 6.7819214 2.5108337 11.614548l-21.640259 0c0.3973999 -5.5771484 1.5594788 -9.631409 3.4862976 -12.162781c1.9267883 -2.5449066 4.4617004 -3.8173676 7.6047974 -3.8173676zm0 -13.218658c-6.1777954 0 -11.404205 1.5905762 -15.67926 4.7717133c-4.2750854 3.181137 -7.5205383 7.445221 -9.736328 12.792252c-2.2158203 5.3470154 -3.3237305 11.282883 -3.3237305 17.807617c0 6.863144 1.144043 12.934387 3.4320984 18.213715c2.3001099 5.2793427 5.7201843 9.42836 10.260162 12.447067c4.552063 3.0051575 10.193939 4.5077515 16.92566 4.5077515c5.0337524 0 9.519562 -0.84606934 13.4574585 -2.538147c3.9499207 -1.7056274 7.3097534 -3.8918152 10.079529 -6.5585785l-7.0448303 -10.721115c-2.3362427 1.6514893 -4.762787 2.9781036 -7.279663 3.9798126c-2.5168762 1.0017242 -5.124054 1.5025787 -7.8215637 1.5025787c-2.4807434 0 -4.720642 -0.5076294 -6.719696 -1.5228882c-1.9869995 -1.0287933 -3.618744 -2.6531982 -4.8952637 -4.87323c-1.2764893 -2.2200317 -2.1194763 -5.143982 -2.5289001 -8.771835l38.168518 0c0.12045288 -0.98817444 0.20474243 -2.1252594 0.25289917 -3.411255c0.06021118 -1.29953 0.09033203 -2.511078 0.09033203 -3.6346283c0 -7.1067963 -1.138031 -13.198349 -3.414032 -18.274643c-2.2760315 -5.0762787 -5.479309 -8.961334 -9.609894 -11.655151c-4.1184998 -2.7073517 -8.989685 -4.061035 -14.613495 -4.061035z" fill-rule="evenodd"/><path fill="#ff935d" d="m435.8187 173.92441c-6.7798767 0 -12.891418 1.7597809 -18.334625 5.2793427c-5.431122 3.5060272 -9.730286 8.6297 -12.897461 15.371002c-3.1551208 6.727768 -4.732666 14.917511 -4.732666 24.56923c0 9.895386 1.5233765 18.220505 4.570099 24.975342c3.0587769 6.7548523 7.279663 11.87175 12.662628 15.350708c5.3829956 3.465393 11.548706 5.19812 18.497223 5.19812c5.9609985 0 11.04895 -1.137085 15.263794 -3.4112854c4.2148438 -2.2876892 7.7673645 -5.035675 10.657562 -8.243881l-8.273163 -11.858215c-2.1435547 1.922226 -4.4918213 3.6955414 -7.0448303 5.3199615c-2.553009 1.6108704 -5.7502747 2.4163055 -9.591797 2.4163055c-3.4802856 0 -6.5751953 -1.0287933 -9.284729 -3.08638c-2.6975098 -2.057602 -4.816986 -5.2793427 -6.358429 -9.665253c-1.5293884 -4.38591 -2.2940674 -10.051056 -2.2940674 -16.995422c0 -7.0661926 0.7947998 -12.812546 2.3843994 -17.239075c1.5895996 -4.440048 3.715088 -7.6888733 6.376465 -9.74646c2.6734314 -2.0575867 5.617798 -3.0863953 8.83313 -3.0863953c2.9985657 0 5.774353 0.5753174 8.327362 1.7259369c2.553009 1.1371002 4.883209 2.6870575 6.990631 4.649887l8.941528 -12.101868c-3.2273865 -3.0051727 -6.7738647 -5.326721 -10.639496 -6.964676c-3.865631 -1.6379395 -8.55014 -2.4569244 -14.053558 -2.4569244z" fill-rule="evenodd"/><path fill="#ff935d" d="m495.96002 208.66653c3.5886536 0 6.243988 1.6447144 7.9660645 4.934143c1.7220764 3.2758942 2.5830994 8.494324 2.5830994 15.655273c0 7.391083 -0.86102295 12.7313385 -2.5830994 16.020767c-1.7220764 3.289444 -4.377411 4.9341583 -7.9660645 4.9341583c-3.5886536 0 -6.2440186 -1.6447144 -7.966095 -4.9341583c-1.710022 -3.2894287 -2.565033 -8.589081 -2.565033 -15.898926c0 -7.2015686 0.855011 -12.453842 2.565033 -15.756805c1.7220764 -3.3029785 4.3774414 -4.9544525 7.966095 -4.9544525zm0 -14.538498c-5.9851074 0 -11.115204 1.4755096 -15.390259 4.426529c-4.275055 2.9510193 -7.550598 7.0729523 -9.82663 12.365829c-2.2760315 5.2793427 -3.414032 11.431808 -3.414032 18.457397c0 7.404602 1.1380005 13.746582 3.414032 19.025925c2.2760315 5.2793427 5.5515747 9.313293 9.82663 12.101868c4.275055 2.7750244 9.405151 4.162567 15.390259 4.162567c6.033264 0 11.1753845 -1.4078369 15.426361 -4.22348c4.263031 -2.829193 7.52652 -6.896988 9.790497 -12.2034c2.276062 -5.3064117 3.4140625 -11.634857 3.4140625 -18.985321c0 -7.079727 -1.1259766 -13.245728 -3.3779297 -18.497986c-2.251892 -5.265808 -5.5093994 -9.353912 -9.77243 -12.264313c-4.2509766 -2.9104004 -9.411163 -4.365616 -15.48056 -4.365616z" fill-rule="evenodd"/><path fill="#ff935d" d="m582.0227 194.31079c-4.732727 0 -8.736816 1.3942871 -12.012329 4.1828613c-3.2635498 2.7885742 -5.955017 7.0323486 -8.074463 12.731323l-3.215332 -14.903976l-21.134521 0l0 13.096817l7.767395 0l0 39.919937l-7.767395 0l0 13.218643l36.958252 0l0 -13.218643l-11.651062 0l0 -18.965012c1.517334 -5.4553223 3.7271729 -9.949524 6.6293945 -13.48262c2.3479614 -2.8583527 5.003296 -4.5604706 7.9660645 -5.1063538l0 0l0 12.233459l10.982727 0l3.2695312 -27.696228c-1.3728638 -0.63623047 -2.8359985 -1.1303253 -4.3894653 -1.4822845c-1.5535278 -0.35194397 -3.329773 -0.5279236 -5.3287964 -0.5279236z" fill-rule="evenodd"/><path fill="#ff935d" d="m629.7001 207.3467c3.7331543 0 6.4125977 1.4552002 8.03833 4.3656006c1.6377563 2.9104156 2.4747314 6.7819214 2.5108643 11.614548l-21.64032 0c0.3973999 -5.5771484 1.5595093 -9.631409 3.4863281 -12.162781c1.9267578 -2.5449066 4.461731 -3.8173676 7.6047974 -3.8173676zm0 -13.218658c-6.1777954 0 -11.404175 1.5905762 -15.67926 4.7717133c-4.2750854 3.181137 -7.520569 7.445221 -9.736328 12.792252c-2.2158203 5.3470154 -3.3237305 11.282883 -3.3237305 17.807617c0 6.863144 1.144043 12.934387 3.432129 18.213715c2.3000488 5.2793427 5.720154 9.42836 10.260132 12.447067c4.552063 3.0051575 10.193909 4.5077515 16.92566 4.5077515c5.0337524 0 9.519592 -0.84606934 13.4574585 -2.538147c3.9498901 -1.7056274 7.3097534 -3.8918152 10.079529 -6.5585785l-7.044861 -10.721115c-2.3362427 1.6514893 -4.7627563 2.9781036 -7.279663 3.9798126c-2.5168457 1.0017242 -5.1240234 1.5025787 -7.821533 1.5025787c-2.480774 0 -4.720642 -0.5076294 -6.7197266 -1.5228882c-1.9869995 -1.0287933 -3.6187134 -2.6531982 -4.8952637 -4.87323c-1.2764893 -2.2200317 -2.1194458 -5.143982 -2.5288696 -8.771835l38.168518 0c0.12042236 -0.98817444 0.20471191 -2.1252594 0.2529297 -3.411255c0.060180664 -1.29953 0.090270996 -2.511078 0.090270996 -3.6346283c0 -7.1067963 -1.1380005 -13.198349 -3.4140015 -18.274643c-2.276062 -5.0762787 -5.479309 -8.961334 -9.609863 -11.655151c-4.1185303 -2.7073517 -8.989746 -4.061035 -14.613525 -4.061035z" fill-rule="evenodd"/><path stroke="#f76820" stroke-width="4.0" stroke-linejoin="round" stroke-linecap="butt" d="m135.98651 176.09706l-4.317215 86.459335l15.5889435 0l0.5419159 -36.671097c0.08430481 -3.4518738 0.10235596 -6.5788727 0.05418396 -9.380981c-0.036117554 -2.8156433 -0.09031677 -5.4485474 -0.16256714 -7.898697c-0.072265625 -2.4636993 -0.19268799 -4.907089 -0.36128235 -7.3301697c-0.15655518 -2.436615 -0.34924316 -5.0289154 -0.57803345 -7.7768707l0 0l9.320862 54.336594l13.764511 0l8.652496 -54.336594l0 0c-0.18063354 2.8697968 -0.35525513 5.522995 -0.5238342 7.9596252c-0.16859436 2.436615 -0.28903198 4.8529205 -0.36128235 7.248932c-0.072250366 2.3824768 -0.12042236 4.9273834 -0.14450073 7.634735c-0.012054443 2.6938171 0.018051147 5.7666626 0.09031677 9.218536l0.93930054 36.995987l15.877975 0l-4.3352814 -86.459335l-18.695908 0l-8.11058 55.900085l-8.544128 -55.900085z" fill-rule="evenodd"/><path stroke="#f76820" stroke-width="4.0" stroke-linejoin="round" stroke-linecap="butt" d="m236.82529 232.5454l0 10.741425c-1.0838165 2.3283234 -2.661377 4.128708 -4.7326813 5.401169c-2.0713043 1.2589111 -4.0462646 1.888382 -5.924881 1.888382c-2.4807434 0 -4.413559 -0.717453 -5.7984467 -2.1523438c-1.3848877 -1.434906 -2.0773163 -3.4180298 -2.0773163 -5.949417c0 -3.248825 1.1440277 -5.7125244 3.4320984 -7.391083c2.2880707 -1.6920929 5.8767242 -2.5381317 10.765945 -2.5381317zm-8.887329 -38.41736c-3.2514648 0 -6.942459 0.41964722 -11.073029 1.2589264c-4.118515 0.8257446 -8.086517 2.0508118 -11.903961 3.675232l4.0462646 13.096817c2.9624329 -1.1235504 5.924881 -1.9831238 8.887329 -2.5787506c2.9624329 -0.6091614 5.382965 -0.9137268 7.2615967 -0.9137268c3.8174438 0 6.7136536 0.8325043 8.688629 2.497528c1.9869995 1.6650238 2.9804993 4.22348 2.9804993 7.675354l0 2.4772186l-7.9480133 0c-9.092041 0 -16.148926 1.95607 -21.170624 5.8681946c-5.009659 3.9121246 -7.514496 9.462204 -7.514496 16.650223c0 6.118622 1.800354 11.120468 5.4010468 15.005524c3.612732 3.8850403 8.453796 5.8275757 14.523193 5.8275757c3.660904 0 7.2495575 -0.73776245 10.765945 -2.2132874c3.5164032 -1.4754944 6.4005737 -3.72937 8.652496 -6.7615967c1.3728333 2.7479553 3.2514648 4.7987976 5.6358643 6.152466c2.3844147 1.3536682 5.316742 2.2132568 8.797012 2.5787354l3.5946655 -12.974976c-1.3608093 -0.582077 -2.3482666 -1.434906 -2.9624329 -2.5584564c-0.61416626 -1.1235504 -0.9212494 -2.9307098 -0.9212494 -5.4214783l0 -25.949982c0 -7.5670624 -2.10141 -13.354019 -6.3042297 -17.3609c-4.1907654 -4.0204315 -10.669617 -6.0306396 -19.436508 -6.0306396z" fill-rule="evenodd"/><path stroke="#f76820" stroke-width="4.0" stroke-linejoin="round" stroke-linecap="butt" d="m288.20572 167.93439l-17.539825 2.050827l0 92.57118l17.539825 0l0 -94.62201zm20.032623 28.386612l-19.364258 29.929794l19.364258 36.305603l19.978424 0l-20.971924 -36.93506l19.364258 -29.300339z" fill-rule="evenodd"/><path stroke="#f76820" stroke-width="4.0" stroke-linejoin="round" stroke-linecap="butt" d="m363.3399 207.3467c3.7331543 0 6.4125977 1.4552002 8.03833 4.3656006c1.6377563 2.9104156 2.4747314 6.7819214 2.5108337 11.614548l-21.640259 0c0.3973999 -5.5771484 1.5594788 -9.631409 3.4862976 -12.162781c1.9267883 -2.5449066 4.4617004 -3.8173676 7.6047974 -3.8173676zm0 -13.218658c-6.1777954 0 -11.404205 1.5905762 -15.67926 4.7717133c-4.2750854 3.181137 -7.5205383 7.445221 -9.736328 12.792252c-2.2158203 5.3470154 -3.3237305 11.282883 -3.3237305 17.807617c0 6.863144 1.144043 12.934387 3.4320984 18.213715c2.3001099 5.2793427 5.7201843 9.42836 10.260162 12.447067c4.552063 3.0051575 10.193939 4.5077515 16.92566 4.5077515c5.0337524 0 9.519562 -0.84606934 13.4574585 -2.538147c3.9499207 -1.7056274 7.3097534 -3.8918152 10.079529 -6.5585785l-7.0448303 -10.721115c-2.3362427 1.6514893 -4.762787 2.9781036 -7.279663 3.9798126c-2.5168762 1.0017242 -5.124054 1.5025787 -7.8215637 1.5025787c-2.4807434 0 -4.720642 -0.5076294 -6.719696 -1.5228882c-1.9869995 -1.0287933 -3.618744 -2.6531982 -4.8952637 -4.87323c-1.2764893 -2.2200317 -2.1194763 -5.143982 -2.5289001 -8.771835l38.168518 0c0.12045288 -0.98817444 0.20474243 -2.1252594 0.25289917 -3.411255c0.06021118 -1.29953 0.09033203 -2.511078 0.09033203 -3.6346283c0 -7.1067963 -1.138031 -13.198349 -3.414032 -18.274643c-2.2760315 -5.0762787 -5.479309 -8.961334 -9.609894 -11.655151c-4.1184998 -2.7073517 -8.989685 -4.061035 -14.613495 -4.061035z" fill-rule="evenodd"/><path stroke="#f76820" stroke-width="4.0" stroke-linejoin="round" stroke-linecap="butt" d="m435.8187 173.92441c-6.7798767 0 -12.891418 1.7597809 -18.334625 5.2793427c-5.431122 3.5060272 -9.730286 8.6297 -12.897461 15.371002c-3.1551208 6.727768 -4.732666 14.917511 -4.732666 24.56923c0 9.895386 1.5233765 18.220505 4.570099 24.975342c3.0587769 6.7548523 7.279663 11.87175 12.662628 15.350708c5.3829956 3.465393 11.548706 5.19812 18.497223 5.19812c5.9609985 0 11.04895 -1.137085 15.263794 -3.4112854c4.2148438 -2.2876892 7.7673645 -5.035675 10.657562 -8.243881l-8.273163 -11.858215c-2.1435547 1.922226 -4.4918213 3.6955414 -7.0448303 5.3199615c-2.553009 1.6108704 -5.7502747 2.4163055 -9.591797 2.4163055c-3.4802856 0 -6.5751953 -1.0287933 -9.284729 -3.08638c-2.6975098 -2.057602 -4.816986 -5.2793427 -6.358429 -9.665253c-1.5293884 -4.38591 -2.2940674 -10.051056 -2.2940674 -16.995422c0 -7.0661926 0.7947998 -12.812546 2.3843994 -17.239075c1.5895996 -4.440048 3.715088 -7.6888733 6.376465 -9.74646c2.6734314 -2.0575867 5.617798 -3.0863953 8.83313 -3.0863953c2.9985657 0 5.774353 0.5753174 8.327362 1.7259369c2.553009 1.1371002 4.883209 2.6870575 6.990631 4.649887l8.941528 -12.101868c-3.2273865 -3.0051727 -6.7738647 -5.326721 -10.639496 -6.964676c-3.865631 -1.6379395 -8.55014 -2.4569244 -14.053558 -2.4569244z" fill-rule="evenodd"/><path stroke="#f76820" stroke-width="4.0" stroke-linejoin="round" stroke-linecap="butt" d="m495.96002 208.66653c3.5886536 0 6.243988 1.6447144 7.9660645 4.934143c1.7220764 3.2758942 2.5830994 8.494324 2.5830994 15.655273c0 7.391083 -0.86102295 12.7313385 -2.5830994 16.020767c-1.7220764 3.289444 -4.377411 4.9341583 -7.9660645 4.9341583c-3.5886536 0 -6.2440186 -1.6447144 -7.966095 -4.9341583c-1.710022 -3.2894287 -2.565033 -8.589081 -2.565033 -15.898926c0 -7.2015686 0.855011 -12.453842 2.565033 -15.756805c1.7220764 -3.3029785 4.3774414 -4.9544525 7.966095 -4.9544525zm0 -14.538498c-5.9851074 0 -11.115204 1.4755096 -15.390259 4.426529c-4.275055 2.9510193 -7.550598 7.0729523 -9.82663 12.365829c-2.2760315 5.2793427 -3.414032 11.431808 -3.414032 18.457397c0 7.404602 1.1380005 13.746582 3.414032 19.025925c2.2760315 5.2793427 5.5515747 9.313293 9.82663 12.101868c4.275055 2.7750244 9.405151 4.162567 15.390259 4.162567c6.033264 0 11.1753845 -1.4078369 15.426361 -4.22348c4.263031 -2.829193 7.52652 -6.896988 9.790497 -12.2034c2.276062 -5.3064117 3.4140625 -11.634857 3.4140625 -18.985321c0 -7.079727 -1.1259766 -13.245728 -3.3779297 -18.497986c-2.251892 -5.265808 -5.5093994 -9.353912 -9.77243 -12.264313c-4.2509766 -2.9104004 -9.411163 -4.365616 -15.48056 -4.365616z" fill-rule="evenodd"/><path stroke="#f76820" stroke-width="4.0" stroke-linejoin="round" stroke-linecap="butt" d="m582.0227 194.31079c-4.732727 0 -8.736816 1.3942871 -12.012329 4.1828613c-3.2635498 2.7885742 -5.955017 7.0323486 -8.074463 12.731323l-3.215332 -14.903976l-21.134521 0l0 13.096817l7.767395 0l0 39.919937l-7.767395 0l0 13.218643l36.958252 0l0 -13.218643l-11.651062 0l0 -18.965012c1.517334 -5.4553223 3.7271729 -9.949524 6.6293945 -13.48262c2.3479614 -2.8583527 5.003296 -4.5604706 7.9660645 -5.1063538l0 0l0 12.233459l10.982727 0l3.2695312 -27.696228c-1.3728638 -0.63623047 -2.8359985 -1.1303253 -4.3894653 -1.4822845c-1.5535278 -0.35194397 -3.329773 -0.5279236 -5.3287964 -0.5279236z" fill-rule="evenodd"/><path stroke="#f76820" stroke-width="4.0" stroke-linejoin="round" stroke-linecap="butt" d="m629.7001 207.3467c3.7331543 0 6.4125977 1.4552002 8.03833 4.3656006c1.6377563 2.9104156 2.4747314 6.7819214 2.5108643 11.614548l-21.64032 0c0.3973999 -5.5771484 1.5595093 -9.631409 3.4863281 -12.162781c1.9267578 -2.5449066 4.461731 -3.8173676 7.6047974 -3.8173676zm0 -13.218658c-6.1777954 0 -11.404175 1.5905762 -15.67926 4.7717133c-4.2750854 3.181137 -7.520569 7.445221 -9.736328 12.792252c-2.2158203 5.3470154 -3.3237305 11.282883 -3.3237305 17.807617c0 6.863144 1.144043 12.934387 3.432129 18.213715c2.3000488 5.2793427 5.720154 9.42836 10.260132 12.447067c4.552063 3.0051575 10.193909 4.5077515 16.92566 4.5077515c5.0337524 0 9.519592 -0.84606934 13.4574585 -2.538147c3.9498901 -1.7056274 7.3097534 -3.8918152 10.079529 -6.5585785l-7.044861 -10.721115c-2.3362427 1.6514893 -4.7627563 2.9781036 -7.279663 3.9798126c-2.5168457 1.0017242 -5.1240234 1.5025787 -7.821533 1.5025787c-2.480774 0 -4.720642 -0.5076294 -6.7197266 -1.5228882c-1.9869995 -1.0287933 -3.6187134 -2.6531982 -4.8952637 -4.87323c-1.2764893 -2.2200317 -2.1194458 -5.143982 -2.5288696 -8.771835l38.168518 0c0.12042236 -0.98817444 0.20471191 -2.1252594 0.2529297 -3.411255c0.060180664 -1.29953 0.090270996 -2.511078 0.090270996 -3.6346283c0 -7.1067963 -1.1380005 -13.198349 -3.4140015 -18.274643c-2.276062 -5.0762787 -5.479309 -8.961334 -9.609863 -11.655151c-4.1185303 -2.7073517 -8.989746 -4.061035 -14.613525 -4.061035z" fill-rule="evenodd"/><defs><linearGradient id="g3a3c7b5fccb_0_206.2" gradientUnits="userSpaceOnUse" gradientTransform="matrix(13.701899425042438 0.0 0.0 13.701899425042438 0.0 0.0)" spreadMethod="pad" x1="49.30095239484461" y1="12.918611423477683" x2="49.29816287029832" y2="26.62051056456506"><stop offset="0.0" stop-color="#ffffff"/><stop offset="1.0" stop-color="#ffae85"/></linearGradient></defs><path fill="url(#g3a3c7b5fccb_0_206.2)" d="m675.51666 208.01439l0 0c0 -17.10263 13.864441 -30.967041 30.967041 -30.967041l123.86444 0l0 0c8.213013 0 16.0896 3.2625885 21.897034 9.070038c5.807434 5.8074493 9.070007 13.684036 9.070007 21.897003l0 125.77013c0 17.10263 -13.86438 30.967041 -30.967041 30.967041l-123.86444 0c-17.1026 0 -30.967041 -13.86441 -30.967041 -30.967041z" fill-rule="evenodd"/><path stroke="#f76820" stroke-width="8.0" stroke-linejoin="round" stroke-linecap="butt" d="m675.51666 208.01439l0 0c0 -17.10263 13.864441 -30.967041 30.967041 -30.967041l123.86444 0l0 0c8.213013 0 16.0896 3.2625885 21.897034 9.070038c5.807434 5.8074493 9.070007 13.684036 9.070007 21.897003l0 125.77013c0 17.10263 -13.86438 30.967041 -30.967041 30.967041l-123.86444 0c-17.1026 0 -30.967041 -13.86441 -30.967041 -30.967041z" fill-rule="evenodd"/><path fill="#ffae85" d="m721.57166 203.25449c-3.996582 0 -6.8778687 0.23475647 -8.643799 0.7042694c-2.602417 0.75123596 -4.7401123 1.8467712 -6.413086 3.2866058c-1.6730347 1.4241943 -3.0826416 3.3335571 -4.228943 5.7280884c-1.1308594 2.3945312 -1.9053955 5.563751 -2.3236084 9.507675c-0.23236084 2.4884338 -0.37176514 7.6531067 -0.41827393 15.494003c-0.046447754 7.8408966 -0.4414673 13.38118 -1.1849976 16.620834c-0.7435913 3.2396393 -2.2461548 5.790695 -4.5078125 7.6530914c-2.2461548 1.8467712 -5.158386 2.8170776 -8.736694 2.9109802l0 11.479645c3.578308 0.09390259 6.4905396 1.079895 8.736694 2.9579468c2.2616577 1.8780518 3.7642212 4.43692 4.5078125 7.6765747c0.7435303 3.2396545 1.1385498 9.085114 1.1849976 17.536377c0.04650879 8.451294 0.3562622 14.531494 0.92944336 18.240662c0.58862305 3.7091675 1.8588867 6.76886 3.81073 9.179016c1.9517822 2.4258423 4.414795 4.1786804 7.389038 5.2585754c2.0447388 0.7512207 5.3442383 1.126831 9.898499 1.126831l3.9036255 0l0 -11.057068l-2.1609497 0c-4.414795 0 -7.3812866 -0.6338501 -8.899353 -1.9015503c-1.5026245 -1.2676697 -2.4397583 -3.4978638 -2.8115845 -6.6905823c-0.18585205 -1.7372131 -0.2788086 -7.183563 -0.2788086 -16.339111c0 -10.094574 -1.1540527 -17.356415 -3.4621582 -21.785492c-2.2926025 -4.444763 -5.994873 -7.7470093 -11.106812 -9.906769c4.3218994 -2.1128235 7.489746 -4.5308228 9.50354 -7.2540283c2.0292358 -2.723175 3.4621582 -6.5966797 4.298645 -11.620483c0.51116943 -3.2396545 0.76678467 -11.010132 0.76678467 -23.311417c0 -6.1036987 0.79003906 -10.031967 2.3700562 -11.784836c1.5800781 -1.7685089 4.786621 -2.6527557 9.61969 -2.6527557l2.1609497 0l0 -11.057083z" fill-rule="evenodd"/><path fill="#ffae85" d="m811.4251 203.25449l0 11.057083l2.1609497 0c4.414856 0 7.373596 0.62602234 8.87616 1.878067c1.5180664 1.2363739 2.4397583 3.4274597 2.7650757 6.5731964c0.23236084 1.7841644 0.34857178 7.254013 0.34857178 16.409561c0 10.094574 1.092041 17.270325 3.276245 21.527252c2.184204 4.2413025 5.9484253 7.6531067 11.292664 10.235443c-4.0895386 1.7371826 -7.2495728 4.1708374 -9.480286 7.300934c-2.2306519 3.1144714 -3.7177124 7.2774963 -4.4613037 12.489105c-0.4182129 3.145752 -0.62731934 10.587585 -0.62731934 22.32544c0 6.1506653 -0.79003906 10.102417 -2.3701172 11.855255c-1.5800171 1.7685242 -4.78656 2.652771 -9.61969 2.652771l-2.1609497 0l0 11.057068l3.9036865 0c3.996582 0 6.8778076 -0.25823975 8.643738 -0.7746887c2.602478 -0.7512207 4.7401733 -1.8467712 6.413147 -3.286621c1.6729736 -1.4241943 3.0748901 -3.325714 4.2056885 -5.70459c1.1463623 -2.3632202 1.9285889 -5.540283 2.3468628 -9.531158c0.23236084 -2.4884338 0.37176514 -7.6531067 0.41827393 -15.493988c0.046447754 -7.840912 0.4414673 -13.36554 1.1849976 -16.573883c0.7435303 -3.223999 2.2384033 -5.775055 4.484558 -7.6531067c2.2615967 -1.8780518 5.1816406 -2.8640442 8.759949 -2.9579468l0 -11.479645c-3.578308 -0.09390259 -6.498352 -1.0798645 -8.759949 -2.9579468c-2.2461548 -1.8780518 -3.7410278 -4.4212646 -4.484558 -7.629608c-0.7435303 -3.223999 -1.1385498 -9.06163 -1.1849976 -17.512909c-0.04650879 -8.451263 -0.3640747 -14.531494 -0.95269775 -18.240662c-0.57318115 -3.7091675 -1.8356323 -6.784485 -3.7874756 -9.225967c-1.9518433 -2.4414825 -4.414856 -4.1786804 -7.389038 -5.211609c-2.0447388 -0.75123596 -5.3442383 -1.1268463 -9.898499 -1.1268463z" fill-rule="evenodd"/><path fill="#ff935d" d="m577.3145 142.33554l0 0c0 -8.976929 7.2772217 -16.254166 16.25415 -16.254166l22.046814 0l0 0c4.310913 0 8.44519 1.7124863 11.493469 4.760727c3.0482178 3.0482483 4.760681 7.182556 4.760681 11.493439l0 24.584396c0 8.976929 -7.2772217 16.254166 -16.25415 16.254166l-22.046814 0c-8.976929 0 -16.25415 -7.277237 -16.25415 -16.254166z" fill-rule="evenodd"/><path stroke="#f76820" stroke-width="4.0" stroke-linejoin="round" stroke-linecap="butt" d="m577.3145 142.33554l0 0c0 -8.976929 7.2772217 -16.254166 16.25415 -16.254166l22.046814 0l0 0c4.310913 0 8.44519 1.7124863 11.493469 4.760727c3.0482178 3.0482483 4.760681 7.182556 4.760681 11.493439l0 24.584396c0 8.976929 -7.2772217 16.254166 -16.25415 16.254166l-22.046814 0c-8.976929 0 -16.25415 -7.277237 -16.25415 -16.254166z" fill-rule="evenodd"/><path fill="#ff935d" d="m576.1149 189.69238l0 0c0 -2.5516815 5.0270386 -4.620224 11.22821 -4.620224l0 0c6.201172 0 11.22821 2.0685425 11.22821 4.620224l0 0c0 2.5516815 -5.0270386 4.620224 -11.22821 4.620224l0 0c-6.201172 0 -11.22821 -2.0685425 -11.22821 -4.620224z" fill-rule="evenodd"/><path stroke="#f76820" stroke-width="4.0" stroke-linejoin="round" stroke-linecap="butt" d="m576.1149 189.69238l0 0c0 -2.5516815 5.0270386 -4.620224 11.22821 -4.620224l0 0c6.201172 0 11.22821 2.0685425 11.22821 4.620224l0 0c0 2.5516815 -5.0270386 4.620224 -11.22821 4.620224l0 0c-6.201172 0 -11.22821 -2.0685425 -11.22821 -4.620224z" fill-rule="evenodd"/><path fill="#ff935d" d="m611.80304 192.11534l0 0c-0.29943848 -2.534027 4.451355 -5.1769104 10.611145 -5.903015l0 0c6.159729 -0.72612 11.395935 0.73950195 11.6953125 3.2735443l0 0c0.29937744 2.5340424 -4.451355 5.1769104 -10.611145 5.903015l0 0c-6.15979 0.72612 -11.395935 -0.73950195 -11.6953125 -3.2735443z" fill-rule="evenodd"/><path stroke="#f76820" stroke-width="4.0" stroke-linejoin="round" stroke-linecap="butt" d="m611.80304 192.11534l0 0c-0.29943848 -2.534027 4.451355 -5.1769104 10.611145 -5.903015l0 0c6.159729 -0.72612 11.395935 0.73950195 11.6953125 3.2735443l0 0c0.29937744 2.5340424 -4.451355 5.1769104 -10.611145 5.903015l0 0c-6.15979 0.72612 -11.395935 -0.73950195 -11.6953125 -3.2735443z" fill-rule="evenodd"/><path fill="#ffae85" d="m579.44794 139.08693l0 0c0 -5.8481445 4.740906 -10.5890045 10.58905 -10.5890045l29.10962 0l0 0c2.8083496 0 5.501709 1.1156311 7.487549 3.1014557c1.9857788 1.9858246 3.1014404 4.6791687 3.1014404 7.487549l0 12.3984375c0 5.8481445 -4.7408447 10.5890045 -10.588989 10.5890045l-29.10962 0c-5.8481445 0 -10.58905 -4.74086 -10.58905 -10.5890045z" fill-rule="evenodd"/><path fill="#ffffff" d="m580.87317 170.52989l0 0c0 -3.1102295 2.8427124 -5.6315613 6.349365 -5.6315613l0 0c3.5066528 0 6.349365 2.5213318 6.349365 5.6315613l0 0c0 3.1102142 -2.8427124 5.631546 -6.349365 5.631546l0 0c-3.5066528 0 -6.349365 -2.5213318 -6.349365 -5.631546z" fill-rule="evenodd"/><path fill="#ffffff" d="m611.1545 181.75555l0 0c-1.7178345 0 -3.302185 -0.9263916 -4.1446533 -2.4234772c-0.8425293 -1.4970703 -0.8121948 -3.3321228 0.07928467 -4.800537c0.8914795 -1.4684296 2.5056152 -2.3419647 4.222473 -2.285202l-0.05706787 1.7272491c-1.0930176 -0.036132812 -2.1206055 0.519989 -2.6881104 1.4548035c-0.5675659 0.9348297 -0.586853 2.1030579 -0.05053711 3.056137c0.53637695 0.95306396 1.5449829 1.5428162 2.6386108 1.5428162z" fill-rule="evenodd"/><path stroke="#ffffff" stroke-width="1.0" stroke-linejoin="round" stroke-linecap="butt" d="m611.1545 181.75555l0 0c-1.7178345 0 -3.302185 -0.9263916 -4.1446533 -2.4234772c-0.8425293 -1.4970703 -0.8121948 -3.3321228 0.07928467 -4.800537c0.8914795 -1.4684296 2.5056152 -2.3419647 4.222473 -2.285202l-0.05706787 1.7272491c-1.0930176 -0.036132812 -2.1206055 0.519989 -2.6881104 1.4548035c-0.5675659 0.9348297 -0.586853 2.1030579 -0.05053711 3.056137c0.53637695 0.95306396 1.5449829 1.5428162 2.6386108 1.5428162z" fill-rule="evenodd"/><path fill="#ffffff" d="m612.4112 170.22379l0 0c0 -3.1136627 2.8414307 -5.637787 6.3464355 -5.637787l0 0c3.505066 0 6.3464966 2.5241241 6.3464966 5.637787l0 0c0 3.1136627 -2.8414307 5.637802 -6.3464966 5.637802l0 0c-3.505005 0 -6.3464355 -2.5241394 -6.3464355 -5.637802z" fill-rule="evenodd"/><path fill="#000000" fill-opacity="0.0" d="m595.87006 175.30458c0.46899414 0.2007904 0.9370117 1.0039368 2.8136597 1.2047272c1.876648 0.2007904 7.038513 0 8.446228 0" fill-rule="evenodd"/><path stroke="#ffffff" stroke-width="3.0" stroke-linejoin="round" stroke-linecap="butt" d="m595.87006 175.30458c0.46899414 0.2007904 0.9370117 1.0039368 2.8136597 1.2047272c1.876648 0.2007904 7.038513 0 8.446228 0" fill-rule="evenodd"/><path fill="#ffffff" d="m594.597 175.35957l0 0c0 -0.80885315 0.6557007 -1.4645691 1.4645996 -1.4645691l0 0c0.38842773 0 0.7609253 0.15431213 1.0355835 0.42897034c0.2746582 0.2746582 0.42895508 0.647171 0.42895508 1.0355988l0 0c0 0.8088684 -0.6557007 1.4645691 -1.4645386 1.4645691l0 0c-0.8088989 0 -1.4645996 -0.6557007 -1.4645996 -1.4645691z" fill-rule="evenodd"/><path fill="#000000" fill-opacity="0.0" d="m115.632545 272.2651l543.874 0l0 96.944855l-543.874 0z" fill-rule="evenodd"/><path fill="#b04a18" d="m141.77318 289.90698l1.25 22.078125l-3.40625 0l-0.515625 -10.75q-0.046875 -1.21875 -0.078125 -2.34375q-0.015625 -1.140625 -0.015625 -2.171875q0 -1.046875 0.015625 -1.9375q0.03125 -0.890625 0.0625 -1.609375l-3.25 14.921875l-3.234375 0l-3.484375 -14.921875q0.046875 0.6875 0.078125 1.609375q0.03125 0.921875 0.046875 1.984375q0.015625 1.046875 0 2.203125q0 1.140625 -0.03125 2.296875l-0.4375 10.71875l-3.3281326 0l1.25 -22.078125l4.4531326 0l3.140625 14.796875l3.015625 -14.796875l4.46875 0zm17.825043 17.9375q0 0.984375 0.296875 1.453125q0.3125 0.453125 0.984375 0.671875l-0.8125 2.4375q-1.25 -0.15625 -2.140625 -0.6875q-0.890625 -0.546875 -1.359375 -1.65625q-0.921875 1.171875 -2.359375 1.765625q-1.421875 0.59375 -3.03125 0.59375q-2.5625 0 -4.0625 -1.453125q-1.484375 -1.453125 -1.484375 -3.796875q0 -2.671875 2.078125 -4.109375q2.078125 -1.453125 5.953125 -1.453125l2.40625 0l0 -1.09375q0 -1.640625 -0.984375 -2.359375q-0.984375 -0.71875 -2.765625 -0.71875q-0.84375 0 -2.03125 0.21875q-1.171875 0.21875 -2.46875 0.671875l-0.875 -2.53125q1.578125 -0.59375 3.09375 -0.875q1.53125 -0.28125 2.828125 -0.28125q3.390625 0 5.0625 1.5q1.671875 1.5 1.671875 4.15625l0 7.546875zm-7.328125 1.9375q1.078125 0 2.109375 -0.578125q1.046875 -0.578125 1.6875 -1.625l0 -3.71875l-1.984375 0q-2.515625 0 -3.609375 0.84375q-1.09375 0.828125 -1.09375 2.3125q0 1.34375 0.734375 2.0625q0.734375 0.703125 2.15625 0.703125zm28.496918 -14.6875l-6.84375 7.546875l7.5625 9.34375l-4.390625 0l-7.265625 -9.25l6.75 -7.640625l4.1875 0zm-11.1875 -7.1875l0 24.078125l-3.59375 0l0 -23.6875l3.59375 -0.390625zm18.481293 16.78125q0.109375 1.734375 0.734375 2.828125q0.625 1.09375 1.640625 1.609375q1.015625 0.5 2.234375 0.5q1.25 0 2.296875 -0.375q1.0625 -0.390625 2.125 -1.09375l1.5625 2.140625q-1.1875 0.96875 -2.78125 1.546875q-1.578125 0.578125 -3.390625 0.578125q-2.625 0 -4.4375 -1.125q-1.8125 -1.125 -2.765625 -3.125q-0.9375 -2.0 -0.9375 -4.625q0 -2.53125 0.921875 -4.53125q0.9375 -2.015625 2.65625 -3.1875q1.734375 -1.1875 4.140625 -1.1875q2.25 0 3.875 1.03125q1.625 1.015625 2.515625 2.90625q0.890625 1.875 0.890625 4.515625q0 0.421875 -0.03125 0.859375q-0.015625 0.421875 -0.046875 0.734375l-11.203125 0zm4.03125 -7.390625q-1.6875 0 -2.78125 1.203125q-1.09375 1.203125 -1.265625 3.734375l7.8125 0q-0.046875 -2.375 -1.015625 -3.65625q-0.96875 -1.28125 -2.75 -1.28125zm20.793793 -7.84375q2.25 0 3.78125 0.59375q1.546875 0.578125 2.875 1.671875l-1.9375 2.296875q-0.984375 -0.828125 -2.125 -1.21875q-1.140625 -0.40625 -2.421875 -0.40625q-1.640625 0 -3.03125 0.828125q-1.390625 0.828125 -2.234375 2.703125q-0.84375 1.875 -0.84375 4.984375q0 3.0625 0.796875 4.9375q0.8125 1.875 2.203125 2.71875q1.390625 0.84375 3.109375 0.84375q1.78125 0 2.953125 -0.578125q1.171875 -0.59375 2.0625 -1.328125l1.796875 2.296875q-1.109375 1.0625 -2.8125 1.84375q-1.6875 0.78125 -4.125 0.78125q-2.796875 0 -5.03125 -1.3125q-2.234375 -1.328125 -3.53125 -3.890625q-1.28125 -2.5625 -1.28125 -6.3125q0 -3.703125 1.328125 -6.25q1.328125 -2.5625 3.546875 -3.875q2.234375 -1.328125 4.921875 -1.328125zm17.356293 5.1875q2.484375 0 4.171875 1.109375q1.703125 1.09375 2.578125 3.078125q0.875 1.984375 0.875 4.671875q0 2.671875 -0.890625 4.6875q-0.890625 2.0 -2.59375 3.125q-1.703125 1.109375 -4.15625 1.109375q-2.4375 0 -4.140625 -1.078125q-1.703125 -1.09375 -2.59375 -3.09375q-0.890625 -2.0 -0.890625 -4.71875q0 -2.640625 0.890625 -4.640625q0.890625 -2.0 2.59375 -3.125q1.71875 -1.125 4.15625 -1.125zm0 2.78125q-1.921875 0 -2.90625 1.484375q-0.96875 1.484375 -0.96875 4.625q0 3.140625 0.953125 4.625q0.96875 1.484375 2.90625 1.484375q1.9375 0 2.90625 -1.484375q0.96875 -1.484375 0.96875 -4.65625q0 -3.109375 -0.96875 -4.59375q-0.953125 -1.484375 -2.890625 -1.484375zm22.356293 -9.515625l3.5937347 0.390625l0 23.6875l-3.1562347 0l-0.265625 -2.078125q-0.859375 1.203125 -2.0625 1.859375q-1.1875 0.65625 -2.6875 0.65625q-2.171875 0 -3.578125 -1.109375q-1.40625 -1.125 -2.09375 -3.125q-0.671875 -2.015625 -0.671875 -4.65625q0 -2.578125 0.796875 -4.578125q0.796875 -2.015625 2.28125 -3.15625q1.5 -1.15625 3.59375 -1.15625q1.328125 0 2.375 0.46875q1.0625 0.46875 1.875 1.375l0 -8.578125zm-3.3125 9.484375q-1.8125 0 -2.828125 1.5q-1.0 1.5 -1.0 4.640625q0 2.171875 0.421875 3.53125q0.421875 1.34375 1.203125 1.984375q0.78125 0.625 1.890625 0.625q1.21875 0 2.109375 -0.703125q0.890625 -0.71875 1.515625 -1.703125l0 -8.0q-0.625 -0.890625 -1.453125 -1.375q-0.828125 -0.5 -1.859375 -0.5zm15.575027 7.296875q0.109375 1.734375 0.734375 2.828125q0.625 1.09375 1.640625 1.609375q1.015625 0.5 2.234375 0.5q1.25 0 2.296875 -0.375q1.0625 -0.390625 2.125 -1.09375l1.5625 2.140625q-1.1875 0.96875 -2.78125 1.546875q-1.578125 0.578125 -3.390625 0.578125q-2.625 0 -4.4375 -1.125q-1.8125 -1.125 -2.765625 -3.125q-0.9375 -2.0 -0.9375 -4.625q0 -2.53125 0.921875 -4.53125q0.9375 -2.015625 2.65625 -3.1875q1.734375 -1.1875 4.140625 -1.1875q2.25 0 3.875 1.03125q1.625 1.015625 2.515625 2.90625q0.890625 1.875 0.890625 4.515625q0 0.421875 -0.03125 0.859375q-0.015625 0.421875 -0.046875 0.734375l-11.203125 0zm4.03125 -7.390625q-1.6875 0 -2.78125 1.203125q-1.09375 1.203125 -1.265625 3.734375l7.8125 0q-0.046875 -2.375 -1.015625 -3.65625q-0.96875 -1.28125 -2.75 -1.28125zm42.00946 9.375l-7.890625 0l-1.53125 5.3125l-3.78125 0l7.03125 -22.078125l4.609375 0l7.03125 22.078125l-3.921875 0l-1.546875 -5.3125zm-7.109375 -2.859375l6.328125 0l-3.15625 -11.03125l-3.171875 11.03125zm15.856293 8.171875l0 -2.5625l2.46875 0l0 -11.796875l-2.46875 0l0 -2.53125l5.203125 0l0.65625 3.921875q0.953125 -2.140625 2.34375 -3.25q1.40625 -1.109375 3.609375 -1.109375q0.75 0 1.34375 0.125q0.609375 0.109375 1.203125 0.3125l-1.078125 3.0625q-0.5 -0.140625 -0.953125 -0.203125q-0.453125 -0.078125 -0.984375 -0.078125q-1.84375 0 -3.1875 1.375q-1.328125 1.375 -2.09375 3.90625l0 6.265625l3.40625 0l0 2.5625l-9.46875 0zm11.1875 -10.671875l0 -4.15625l0.453125 -2.0625l2.71875 0l-0.609375 6.21875l-2.5625 0zm15.981293 8.15625q1.1875 0 2.203125 -0.40625q1.03125 -0.40625 1.96875 -1.0625l1.65625 2.296875q-1.09375 0.953125 -2.671875 1.546875q-1.578125 0.578125 -3.265625 0.578125q-2.59375 0 -4.4375 -1.09375q-1.828125 -1.109375 -2.8125 -3.09375q-0.96875 -1.984375 -0.96875 -4.625q0 -2.5625 0.984375 -4.578125q0.984375 -2.03125 2.84375 -3.203125q1.859375 -1.1875 4.453125 -1.1875q1.734375 0 3.1875 0.515625q1.453125 0.515625 2.671875 1.515625l-1.640625 2.25q-1.0 -0.6875 -2.03125 -1.046875q-1.03125 -0.359375 -2.109375 -0.359375q-2.0 0 -3.28125 1.484375q-1.265625 1.46875 -1.265625 4.609375q0 2.125 0.578125 3.40625q0.578125 1.28125 1.609375 1.875q1.03125 0.578125 2.328125 0.578125zm23.981293 -1.625q0 0.984375 0.296875 1.453125q0.3125 0.453125 0.984375 0.671875l-0.8125 2.4375q-1.25 -0.15625 -2.140625 -0.6875q-0.890625 -0.546875 -1.359375 -1.65625q-0.921875 1.171875 -2.359375 1.765625q-1.421875 0.59375 -3.03125 0.59375q-2.5625 0 -4.0625 -1.453125q-1.484375 -1.453125 -1.484375 -3.796875q0 -2.671875 2.078125 -4.109375q2.078125 -1.453125 5.953125 -1.453125l2.40625 0l0 -1.09375q0 -1.640625 -0.984375 -2.359375q-0.984375 -0.71875 -2.765625 -0.71875q-0.84375 0 -2.03125 0.21875q-1.171875 0.21875 -2.46875 0.671875l-0.875 -2.53125q1.578125 -0.59375 3.09375 -0.875q1.53125 -0.28125 2.828125 -0.28125q3.390625 0 5.0625 1.5q1.671875 1.5 1.671875 4.15625l0 7.546875zm-7.328125 1.9375q1.078125 0 2.109375 -0.578125q1.046875 -0.578125 1.6875 -1.625l0 -3.71875l-1.984375 0q-2.515625 0 -3.609375 0.84375q-1.09375 0.828125 -1.09375 2.3125q0 1.34375 0.734375 2.0625q0.734375 0.703125 2.15625 0.703125zm23.528168 -21.875l3.59375 0.390625l0 23.6875l-3.15625 0l-0.265625 -2.078125q-0.859375 1.203125 -2.0625 1.859375q-1.1875 0.65625 -2.6875 0.65625q-2.171875 0 -3.578125 -1.109375q-1.40625 -1.125 -2.09375 -3.125q-0.671875 -2.015625 -0.671875 -4.65625q0 -2.578125 0.796875 -4.578125q0.796875 -2.015625 2.28125 -3.15625q1.5 -1.15625 3.59375 -1.15625q1.328125 0 2.375 0.46875q1.0625 0.46875 1.875 1.375l0 -8.578125zm-3.3125 9.484375q-1.8125 0 -2.828125 1.5q-1.0 1.5 -1.0 4.640625q0 2.171875 0.421875 3.53125q0.421875 1.34375 1.203125 1.984375q0.78125 0.625 1.890625 0.625q1.21875 0 2.109375 -0.703125q0.890625 -0.71875 1.515625 -1.703125l0 -8.0q-0.625 -0.890625 -1.453125 -1.375q-0.828125 -0.5 -1.859375 -0.5zm15.575043 7.296875q0.109375 1.734375 0.734375 2.828125q0.625 1.09375 1.640625 1.609375q1.015625 0.5 2.234375 0.5q1.25 0 2.296875 -0.375q1.0625 -0.390625 2.125 -1.09375l1.5625 2.140625q-1.1875 0.96875 -2.78125 1.546875q-1.578125 0.578125 -3.390625 0.578125q-2.625 0 -4.4375 -1.125q-1.8125 -1.125 -2.765625 -3.125q-0.9375 -2.0 -0.9375 -4.625q0 -2.53125 0.921875 -4.53125q0.9375 -2.015625 2.65625 -3.1875q1.734375 -1.1875 4.140625 -1.1875q2.25 0 3.875 1.03125q1.625 1.015625 2.515625 2.90625q0.890625 1.875 0.890625 4.515625q0 0.421875 -0.03125 0.859375q-0.015625 0.421875 -0.046875 0.734375l-11.203125 0zm4.03125 -7.390625q-1.6875 0 -2.78125 1.203125q-1.09375 1.203125 -1.265625 3.734375l7.8125 0q-0.046875 -2.375 -1.015625 -3.65625q-0.96875 -1.28125 -2.75 -1.28125zm44.306335 10.546875q0 0.984375 0.296875 1.453125q0.3125 0.453125 0.984375 0.671875l-0.8125 2.4375q-1.25 -0.15625 -2.140625 -0.6875q-0.890625 -0.546875 -1.359375 -1.65625q-0.921875 1.171875 -2.359375 1.765625q-1.421875 0.59375 -3.03125 0.59375q-2.5625 0 -4.0625 -1.453125q-1.484375 -1.453125 -1.484375 -3.796875q0 -2.671875 2.078125 -4.109375q2.078125 -1.453125 5.953125 -1.453125l2.40625 0l0 -1.09375q0 -1.640625 -0.984375 -2.359375q-0.984375 -0.71875 -2.765625 -0.71875q-0.84375 0 -2.03125 0.21875q-1.171875 0.21875 -2.46875 0.671875l-0.875 -2.53125q1.578125 -0.59375 3.09375 -0.875q1.53125 -0.28125 2.828125 -0.28125q3.390625 0 5.0625 1.5q1.671875 1.5 1.671875 4.15625l0 7.546875zm-7.328125 1.9375q1.078125 0 2.109375 -0.578125q1.046875 -0.578125 1.6875 -1.625l0 -3.71875l-1.984375 0q-2.515625 0 -3.609375 0.84375q-1.09375 0.828125 -1.09375 2.3125q0 1.34375 0.734375 2.0625q0.734375 0.703125 2.15625 0.703125zm13.606293 2.203125l0 -16.890625l3.09375 0l0.265625 2.1875q1.0625 -1.296875 2.5 -1.96875q1.4375 -0.671875 2.953125 -0.671875q2.375 0 3.546875 1.328125q1.1875 1.3125 1.1875 3.703125l0 12.3125l-3.59375 0l0 -10.546875q0 -1.46875 -0.171875 -2.359375q-0.171875 -0.90625 -0.703125 -1.296875q-0.515625 -0.40625 -1.53125 -0.40625q-0.828125 0 -1.5625 0.359375q-0.734375 0.34375 -1.34375 0.921875q-0.609375 0.5625 -1.046875 1.203125l0 12.125l-3.59375 0zm29.121918 -24.078125l3.59375 0.390625l0 23.6875l-3.15625 0l-0.265625 -2.078125q-0.859375 1.203125 -2.0625 1.859375q-1.1875 0.65625 -2.6875 0.65625q-2.171875 0 -3.578125 -1.109375q-1.40625 -1.125 -2.09375 -3.125q-0.671875 -2.015625 -0.671875 -4.65625q0 -2.578125 0.796875 -4.578125q0.796875 -2.015625 2.28125 -3.15625q1.5 -1.15625 3.59375 -1.15625q1.328125 0 2.375 0.46875q1.0625 0.46875 1.875 1.375l0 -8.578125zm-3.3125 9.484375q-1.8125 0 -2.828125 1.5q-1.0 1.5 -1.0 4.640625q0 2.171875 0.421875 3.53125q0.421875 1.34375 1.203125 1.984375q0.78125 0.625 1.890625 0.625q1.21875 0 2.109375 -0.703125q0.890625 -0.71875 1.515625 -1.703125l0 -8.0q-0.625 -0.890625 -1.453125 -1.375q-0.828125 -0.5 -1.859375 -0.5zm46.493866 8.359375q0 1.953125 -1.0 3.46875q-1.0 1.5 -2.875 2.359375q-1.875 0.84375 -4.53125 0.84375q-2.6875 0 -4.71875 -0.8125q-2.0156555 -0.8125 -3.4062805 -2.15625l2.03125 -2.265625q1.1719055 1.0625 2.6562805 1.6875q1.5 0.609375 3.421875 0.609375q1.25 0 2.28125 -0.390625q1.046875 -0.390625 1.671875 -1.171875q0.625 -0.796875 0.625 -2.0q0 -0.984375 -0.40625 -1.65625q-0.40625 -0.671875 -1.390625 -1.203125q-0.984375 -0.546875 -2.734375 -1.0625q-2.34375 -0.703125 -3.9375 -1.5625q-1.578125 -0.875 -2.3906555 -2.078125q-0.796875 -1.203125 -0.796875 -2.9375q0 -1.796875 0.984375 -3.140625q0.9844055 -1.34375 2.7031555 -2.078125q1.71875 -0.75 3.890625 -0.75q2.40625 0 4.1875 0.6875q1.796875 0.6875 3.21875 1.96875l-1.953125 2.21875q-1.171875 -1.03125 -2.515625 -1.484375q-1.328125 -0.46875 -2.703125 -0.46875q-1.125 0 -2.046875 0.328125q-0.90625 0.3125 -1.4375 0.9375q-0.515625 0.609375 -0.515625 1.578125q0 0.84375 0.46875 1.453125q0.46875 0.609375 1.59375 1.140625q1.140625 0.515625 3.109375 1.09375q1.84375 0.546875 3.328125 1.359375q1.484375 0.796875 2.328125 2.09375q0.859375 1.28125 0.859375 3.390625zm12.637512 3.71875q1.1875 0 2.203125 -0.40625q1.03125 -0.40625 1.96875 -1.0625l1.65625 2.296875q-1.09375 0.953125 -2.671875 1.546875q-1.578125 0.578125 -3.265625 0.578125q-2.59375 0 -4.4375 -1.09375q-1.828125 -1.109375 -2.8125 -3.09375q-0.96875 -1.984375 -0.96875 -4.625q0 -2.5625 0.984375 -4.578125q0.984375 -2.03125 2.84375 -3.203125q1.859375 -1.1875 4.453125 -1.1875q1.734375 0 3.1875 0.515625q1.453125 0.515625 2.671875 1.515625l-1.640625 2.25q-1.0 -0.6875 -2.03125 -1.046875q-1.03125 -0.359375 -2.109375 -0.359375q-2.0 0 -3.28125 1.484375q-1.265625 1.46875 -1.265625 4.609375q0 2.125 0.578125 3.40625q0.578125 1.28125 1.609375 1.875q1.03125 0.578125 2.328125 0.578125zm11.231323 2.515625l0 -2.5625l2.46875 0l0 -11.796875l-2.46875 0l0 -2.53125l5.203125 0l0.65625 3.921875q0.953125 -2.140625 2.34375 -3.25q1.40625 -1.109375 3.609375 -1.109375q0.75 0 1.34375 0.125q0.609375 0.109375 1.203125 0.3125l-1.078125 3.0625q-0.5 -0.140625 -0.953125 -0.203125q-0.453125 -0.078125 -0.984375 -0.078125q-1.84375 0 -3.1875 1.375q-1.328125 1.375 -2.09375 3.90625l0 6.265625l3.40625 0l0 2.5625l-9.46875 0zm11.1875 -10.671875l0 -4.15625l0.453125 -2.0625l2.71875 0l-0.609375 6.21875l-2.5625 0zm20.762512 6.53125q0 0.984375 0.296875 1.453125q0.3125 0.453125 0.984375 0.671875l-0.8125 2.4375q-1.25 -0.15625 -2.140625 -0.6875q-0.890625 -0.546875 -1.359375 -1.65625q-0.921875 1.171875 -2.359375 1.765625q-1.421875 0.59375 -3.03125 0.59375q-2.5625 0 -4.0625 -1.453125q-1.484375 -1.453125 -1.484375 -3.796875q0 -2.671875 2.078125 -4.109375q2.078125 -1.453125 5.953125 -1.453125l2.40625 0l0 -1.09375q0 -1.640625 -0.984375 -2.359375q-0.984375 -0.71875 -2.765625 -0.71875q-0.84375 0 -2.03125 0.21875q-1.171875 0.21875 -2.46875 0.671875l-0.875 -2.53125q1.578125 -0.59375 3.09375 -0.875q1.53125 -0.28125 2.828125 -0.28125q3.390625 0 5.0625 1.5q1.671875 1.5 1.671875 4.15625l0 7.546875zm-7.328125 1.9375q1.078125 0 2.109375 -0.578125q1.046875 -0.578125 1.6875 -1.625l0 -3.71875l-1.984375 0q-2.515625 0 -3.609375 0.84375q-1.09375 0.828125 -1.09375 2.3125q0 1.34375 0.734375 2.0625q0.734375 0.703125 2.15625 0.703125zm27.715698 1.3125q-0.921875 0.59375 -2.21875 0.953125q-1.296875 0.375 -2.703125 0.375q-2.9375 0 -4.46875 -1.53125q-1.53125 -1.53125 -1.53125 -4.03125l0 -9.15625l-3.765625 0l0 -2.609375l3.765625 0l0 -3.78125l3.578125 -0.4375l0 4.21875l5.703125 0l-0.40625 2.609375l-5.296875 0l0 9.125q0 1.359375 0.671875 2.03125q0.6875 0.65625 2.25 0.65625q0.921875 0 1.703125 -0.21875q0.796875 -0.21875 1.421875 -0.578125l1.296875 2.375zm13.231262 -1.625q1.1875 0 2.203125 -0.40625q1.03125 -0.40625 1.96875 -1.0625l1.65625 2.296875q-1.09375 0.953125 -2.671875 1.546875q-1.578125 0.578125 -3.265625 0.578125q-2.59375 0 -4.4375 -1.09375q-1.828125 -1.109375 -2.8125 -3.09375q-0.96875 -1.984375 -0.96875 -4.625q0 -2.5625 0.984375 -4.578125q0.984375 -2.03125 2.84375 -3.203125q1.859375 -1.1875 4.453125 -1.1875q1.734375 0 3.1875 0.515625q1.453125 0.515625 2.671875 1.515625l-1.640625 2.25q-1.0 -0.6875 -2.03125 -1.046875q-1.03125 -0.359375 -2.109375 -0.359375q-2.0 0 -3.28125 1.484375q-1.265625 1.46875 -1.265625 4.609375q0 2.125 0.578125 3.40625q0.578125 1.28125 1.609375 1.875q1.03125 0.578125 2.328125 0.578125zm14.653198 -21.515625l0 9.203125q1.015625 -1.25 2.390625 -1.875q1.375 -0.640625 2.828125 -0.640625q2.390625 0 3.5625 1.328125q1.171875 1.3125 1.171875 3.703125l0 12.3125l-3.59375 0l0 -11.765625q0 -1.515625 -0.578125 -2.171875q-0.578125 -0.671875 -1.84375 -0.671875q-0.8125 0 -1.546875 0.359375q-0.71875 0.359375 -1.34375 0.9375q-0.609375 0.578125 -1.046875 1.234375l0 12.078125l-3.59375 0l0 -23.640625l3.59375 -0.390625z" fill-rule="nonzero"/><path fill="#b04a18" d="m142.17943 344.15073q0 1.953125 -1.0 3.46875q-1.0 1.5 -2.875 2.359375q-1.875 0.84375 -4.53125 0.84375q-2.6875 0 -4.71875 -0.8125q-2.0156326 -0.8125 -3.4062576 -2.15625l2.03125 -2.265625q1.1718826 1.0625 2.6562576 1.6875q1.5 0.609375 3.421875 0.609375q1.25 0 2.28125 -0.390625q1.046875 -0.390625 1.671875 -1.171875q0.625 -0.796875 0.625 -2.0q0 -0.984375 -0.40625 -1.65625q-0.40625 -0.671875 -1.390625 -1.203125q-0.984375 -0.546875 -2.734375 -1.0625q-2.34375 -0.703125 -3.9375 -1.5625q-1.578125 -0.875 -2.3906326 -2.078125q-0.796875 -1.203125 -0.796875 -2.9375q0 -1.796875 0.984375 -3.140625q0.9843826 -1.34375 2.7031326 -2.078125q1.71875 -0.75 3.890625 -0.75q2.40625 0 4.1875 0.6875q1.796875 0.6875 3.21875 1.96875l-1.953125 2.21875q-1.171875 -1.03125 -2.515625 -1.484375q-1.328125 -0.46875 -2.703125 -0.46875q-1.125 0 -2.046875 0.328125q-0.90625 0.3125 -1.4375 0.9375q-0.515625 0.609375 -0.515625 1.578125q0 0.84375 0.46875 1.453125q0.46875 0.609375 1.59375 1.140625q1.140625 0.515625 3.109375 1.09375q1.84375 0.546875 3.328125 1.359375q1.484375 0.796875 2.328125 2.09375q0.859375 1.28125 0.859375 3.390625zm8.090668 -17.796875l0 9.203125q1.015625 -1.25 2.390625 -1.875q1.375 -0.640625 2.828125 -0.640625q2.390625 0 3.5625 1.328125q1.171875 1.3125 1.171875 3.703125l0 12.3125l-3.59375 0l0 -11.765625q0 -1.515625 -0.578125 -2.171875q-0.578125 -0.671875 -1.84375 -0.671875q-0.8125 0 -1.546875 0.359375q-0.71875 0.359375 -1.34375 0.9375q-0.609375 0.578125 -1.046875 1.234375l0 12.078125l-3.59375 0l0 -23.640625l3.59375 -0.390625zm28.528168 19.890625q0 0.984375 0.296875 1.453125q0.3125 0.453125 0.984375 0.671875l-0.8125 2.4375q-1.25 -0.15625 -2.140625 -0.6875q-0.890625 -0.546875 -1.359375 -1.65625q-0.921875 1.171875 -2.359375 1.765625q-1.421875 0.59375 -3.03125 0.59375q-2.5625 0 -4.0625 -1.453125q-1.484375 -1.453125 -1.484375 -3.796875q0 -2.671875 2.078125 -4.109375q2.078125 -1.453125 5.953125 -1.453125l2.40625 0l0 -1.09375q0 -1.640625 -0.984375 -2.359375q-0.984375 -0.71875 -2.765625 -0.71875q-0.84375 0 -2.03125 0.21875q-1.171875 0.21875 -2.46875 0.671875l-0.875 -2.53125q1.578125 -0.59375 3.09375 -0.875q1.53125 -0.28125 2.828125 -0.28125q3.390625 0 5.0625 1.5q1.671875 1.5 1.671875 4.15625l0 7.546875zm-7.328125 1.9375q1.078125 0 2.109375 -0.578125q1.046875 -0.578125 1.6875 -1.625l0 -3.71875l-1.984375 0q-2.515625 0 -3.609375 0.84375q-1.09375 0.828125 -1.09375 2.3125q0 1.34375 0.734375 2.0625q0.734375 0.703125 2.15625 0.703125zm13.778168 2.203125l0 -2.5625l2.46875 0l0 -11.796875l-2.46875 0l0 -2.53125l5.203125 0l0.65625 3.921875q0.953125 -2.140625 2.34375 -3.25q1.40625 -1.109375 3.609375 -1.109375q0.75 0 1.34375 0.125q0.609375 0.109375 1.203125 0.3125l-1.078125 3.0625q-0.5 -0.140625 -0.953125 -0.203125q-0.453125 -0.078125 -0.984375 -0.078125q-1.84375 0 -3.1875 1.375q-1.328125 1.375 -2.09375 3.90625l0 6.265625l3.40625 0l0 2.5625l-9.46875 0zm11.1875 -10.671875l0 -4.15625l0.453125 -2.0625l2.71875 0l-0.609375 6.21875l-2.5625 0zm17.075043 -6.21875l0 14.265625l4.59375 0l0 2.625l-13.234375 0l0 -2.625l5.0625 0l0 -11.640625l-4.90625 0l0 -2.625l8.484375 0zm-2.5 -8.28125q1.0625 0 1.703125 0.640625q0.65625 0.640625 0.65625 1.609375q0 0.953125 -0.65625 1.609375q-0.640625 0.65625 -1.703125 0.65625q-1.015625 0 -1.671875 -0.65625q-0.65625 -0.65625 -0.65625 -1.609375q0 -0.96875 0.65625 -1.609375q0.65625 -0.640625 1.671875 -0.640625zm12.465668 25.171875l0 -16.890625l3.09375 0l0.265625 2.1875q1.0625 -1.296875 2.5 -1.96875q1.4375 -0.671875 2.953125 -0.671875q2.375 0 3.546875 1.328125q1.1875 1.3125 1.1875 3.703125l0 12.3125l-3.59375 0l0 -10.546875q0 -1.46875 -0.171875 -2.359375q-0.171875 -0.90625 -0.703125 -1.296875q-0.515625 -0.40625 -1.53125 -0.40625q-0.828125 0 -1.5625 0.359375q-0.734375 0.34375 -1.34375 0.921875q-0.609375 0.5625 -1.046875 1.203125l0 12.125l-3.59375 0zm33.434402 -19.046875l0.953125 2.984375q-1.0 0.328125 -2.2187347 0.453125q-1.203125 0.109375 -2.6875 0.109375q1.515625 0.671875 2.28125 1.71875q0.76560974 1.046875 0.76560974 2.5625q0 1.65625 -0.79685974 2.953125q-0.796875 1.296875 -2.296875 2.03125q-1.484375 0.734375 -3.5625 0.734375q-0.734375 0 -1.265625 -0.0625q-0.53125 -0.0625 -1.046875 -0.21875q-0.328125 0.234375 -0.546875 0.609375q-0.203125 0.375 -0.203125 0.78125q0 0.515625 0.421875 0.890625q0.421875 0.375 1.6875 0.375l2.9375 0q1.8125 0 3.1875 0.625q1.390625 0.609375 2.1718597 1.671875q0.796875 1.0625 0.796875 2.40625q0 2.53125 -2.1718597 3.921875q-2.171875 1.390625 -6.265625 1.390625q-2.90625 0 -4.546875 -0.59375q-1.640625 -0.578125 -2.3125 -1.75q-0.671875 -1.171875 -0.671875 -2.859375l3.203125 0q0 0.875 0.34375 1.453125q0.34375 0.578125 1.28125 0.859375q0.953125 0.28125 2.734375 0.28125q1.78125 0 2.828125 -0.296875q1.046875 -0.28125 1.515625 -0.84375q0.46875 -0.546875 0.46875 -1.3125q0 -1.03125 -0.90625 -1.59375q-0.890625 -0.546875 -2.390625 -0.546875l-2.890625 0q-2.40625 0 -3.515625 -0.96875q-1.109375 -0.984375 -1.109375 -2.28125q0 -0.875 0.484375 -1.671875q0.484375 -0.796875 1.40625 -1.390625q-1.53125 -0.796875 -2.234375 -1.9375q-0.6875 -1.15625 -0.6875 -2.78125q0 -1.796875 0.890625 -3.140625q0.90625 -1.34375 2.5 -2.09375q1.59375 -0.75 3.671875 -0.75q2.03125 0 3.390625 -0.21875q1.359375 -0.21875 2.375 -0.609375q1.015625 -0.40625 2.0312347 -0.890625zm-7.7656097 4.1875q-1.71875 0 -2.578125 0.96875q-0.859375 0.96875 -0.859375 2.515625q0 1.59375 0.875 2.5625q0.890625 0.96875 2.609375 0.96875q1.578125 0 2.421875 -0.921875q0.84375 -0.9375 0.84375 -2.640625q0 -1.734375 -0.84375 -2.59375q-0.828125 -0.859375 -2.46875 -0.859375zm43.24382 -0.265625q0 -1.515625 -0.59375 -2.421875q-0.578125 -0.921875 -1.640625 -1.328125q-1.0625 -0.421875 -2.5 -0.421875l-2.65625 0l0 8.59375l2.703125 0q1.390625 0 2.4375 -0.40625q1.0625 -0.421875 1.65625 -1.375q0.59375 -0.96875 0.59375 -2.640625zm3.90625 -0.03125q0 2.578125 -1.09375 4.1875q-1.09375 1.59375 -3.046875 2.34375q-1.953125 0.75 -4.484375 0.75l-2.671875 0l0 7.875l-3.703125 0l0 -22.078125l6.125 0q4.15625 0 6.515625 1.703125q2.359375 1.703125 2.359375 5.21875zm11.403168 -8.53125l0 19.078125q0 1.171875 0.71875 1.65625q0.71875 0.484375 1.84375 0.484375q0.734375 0 1.390625 -0.15625q0.65625 -0.15625 1.28125 -0.40625l0.921875 2.5q-0.765625 0.390625 -1.859375 0.671875q-1.09375 0.296875 -2.5 0.296875q-2.546875 0 -3.96875 -1.4375q-1.40625 -1.4375 -1.40625 -3.921875l0 -16.125l-5.109375 0l0 -2.640625l8.6875 0zm24.700043 19.546875q0 0.984375 0.296875 1.453125q0.3125 0.453125 0.984375 0.671875l-0.8125 2.4375q-1.25 -0.15625 -2.140625 -0.6875q-0.890625 -0.546875 -1.359375 -1.65625q-0.921875 1.171875 -2.359375 1.765625q-1.421875 0.59375 -3.03125 0.59375q-2.5625 0 -4.0625 -1.453125q-1.484375 -1.453125 -1.484375 -3.796875q0 -2.671875 2.078125 -4.109375q2.078125 -1.453125 5.953125 -1.453125l2.40625 0l0 -1.09375q0 -1.640625 -0.984375 -2.359375q-0.984375 -0.71875 -2.765625 -0.71875q-0.84375 0 -2.03125 0.21875q-1.171875 0.21875 -2.46875 0.671875l-0.875 -2.53125q1.578125 -0.59375 3.09375 -0.875q1.53125 -0.28125 2.828125 -0.28125q3.390625 0 5.0625 1.5q1.671875 1.5 1.671875 4.15625l0 7.546875zm-7.328125 1.9375q1.078125 0 2.109375 -0.578125q1.046875 -0.578125 1.6875 -1.625l0 -3.71875l-1.984375 0q-2.515625 0 -3.609375 0.84375q-1.09375 0.828125 -1.09375 2.3125q0 1.34375 0.734375 2.0625q0.734375 0.703125 2.15625 0.703125zm27.715668 1.3125q-0.921875 0.59375 -2.21875 0.953125q-1.296875 0.375 -2.703125 0.375q-2.9375 0 -4.46875 -1.53125q-1.53125 -1.53125 -1.53125 -4.03125l0 -9.15625l-3.765625 0l0 -2.609375l3.765625 0l0 -3.78125l3.578125 -0.4375l0 4.21875l5.703125 0l-0.40625 2.609375l-5.296875 0l0 9.125q0 1.359375 0.671875 2.03125q0.6875 0.65625 2.25 0.65625q0.921875 0 1.703125 -0.21875q0.796875 -0.21875 1.421875 -0.578125l1.296875 2.375zm15.371918 -23.1875q1.546875 0 2.765625 0.265625q1.234375 0.265625 2.265625 0.703125l-1.046875 2.484375q-0.859375 -0.34375 -1.78125 -0.5q-0.90625 -0.171875 -1.859375 -0.171875q-1.65625 0 -2.46875 0.640625q-0.796875 0.625 -0.796875 1.984375l0 2.984375l5.65625 0l-0.390625 2.640625l-5.265625 0l0 13.046875l-3.5625 0l0 -13.046875l-3.84375 0l0 -2.640625l3.84375 0l0 -3.015625q0 -1.59375 0.796875 -2.796875q0.8125 -1.21875 2.265625 -1.890625q1.46875 -0.6875 3.421875 -0.6875zm15.684418 6.734375q2.484375 0 4.171875 1.109375q1.703125 1.09375 2.578125 3.078125q0.875 1.984375 0.875 4.671875q0 2.671875 -0.890625 4.6875q-0.890625 2.0 -2.59375 3.125q-1.703125 1.109375 -4.15625 1.109375q-2.4375 0 -4.140625 -1.078125q-1.703125 -1.09375 -2.59375 -3.09375q-0.890625 -2.0 -0.890625 -4.71875q0 -2.640625 0.890625 -4.640625q0.890625 -2.0 2.59375 -3.125q1.71875 -1.125 4.15625 -1.125zm0 2.78125q-1.921875 0 -2.90625 1.484375q-0.96875 1.484375 -0.96875 4.625q0 3.140625 0.953125 4.625q0.96875 1.484375 2.90625 1.484375q1.9375 0 2.90625 -1.484375q0.96875 -1.484375 0.96875 -4.65625q0 -3.109375 -0.96875 -4.59375q-0.953125 -1.484375 -2.890625 -1.484375zm12.606293 14.5625l0 -2.5625l2.46875 0l0 -11.796875l-2.46875 0l0 -2.53125l5.203125 0l0.65625 3.921875q0.953125 -2.140625 2.34375 -3.25q1.40625 -1.109375 3.609375 -1.109375q0.75 0 1.34375 0.125q0.609375 0.109375 1.203125 0.3125l-1.078125 3.0625q-0.5 -0.140625 -0.953125 -0.203125q-0.453125 -0.078125 -0.984375 -0.078125q-1.84375 0 -3.1875 1.375q-1.328125 1.375 -2.09375 3.90625l0 6.265625l3.40625 0l0 2.5625l-9.46875 0zm11.1875 -10.671875l0 -4.15625l0.453125 -2.0625l2.71875 0l-0.609375 6.21875l-2.5625 0zm19.496918 -6.671875q0.953125 0 1.71875 0.421875q0.765625 0.40625 1.203125 1.453125q0.453125 1.03125 0.453125 2.90625l0 12.5625l-3.1875 0l0 -12.0625q0 -1.328125 -0.1875 -1.90625q-0.1875 -0.578125 -0.953125 -0.578125q-0.609375 0 -1.234375 0.375q-0.609375 0.375 -1.25 1.296875l0 12.875l-2.90625 0l0 -12.0625q0 -1.328125 -0.1875 -1.90625q-0.171875 -0.578125 -0.9375 -0.578125q-0.625 0 -1.25 0.375q-0.609375 0.375 -1.25 1.296875l0 12.875l-3.203125 0l0 -16.890625l2.703125 0l0.234375 1.8125q0.71875 -1.0 1.5625 -1.625q0.859375 -0.640625 2.0625 -0.640625q0.953125 0 1.734375 0.484375q0.796875 0.46875 1.15625 1.671875q0.703125 -0.953125 1.59375 -1.546875q0.90625 -0.609375 2.125 -0.609375z" fill-rule="nonzero"/><path fill="#ffae85" fill-opacity="0.6" d="m251.48694 39.685135c-0.18023682 -0.96348953 -0.39035034 -1.8926582 -0.69548035 -2.970768c-0.30514526 -1.0781097 -0.7514801 -2.4666405 -1.1353302 -3.4978943c-0.38383484 -1.0312538 -0.70936584 -1.7457066 -1.1677399 -2.6896343c-0.45835876 -0.94392776 -1.1186218 -2.164278 -1.582428 -2.9739323c-0.46380615 -0.80965424 -0.5657959 -1.008894 -1.2004242 -1.8839893c-0.6346283 -0.87509346 -1.685318 -2.2982464 -2.6073456 -3.366579c-0.9220276 -1.0683308 -2.0001373 -2.1702023 -2.9248352 -3.0434093c-0.9246979 -0.873209 -1.7680511 -1.5256844 -2.6233368 -2.195837c-0.8553009 -0.67015266 -1.5769958 -1.2265873 -2.508438 -1.825079c-0.931427 -0.5984926 -2.1940155 -1.290247 -3.080185 -1.7658739c-0.88616943 -0.47562695 -1.4071198 -0.72429085 -2.2368317 -1.0878878c-0.8297119 -0.36359692 -1.6759491 -0.72548103 -2.7414398 -1.0936947c-1.0654755 -0.3682127 -2.4565277 -0.80563354 -3.6514282 -1.1155815c-1.1949005 -0.30994797 -2.4857483 -0.57389355 -3.5179749 -0.74410534c-1.0322266 -0.17021084 -1.8671265 -0.2143898 -2.6753693 -0.27716255c-0.8082428 -0.06277275 -1.39357 -0.08793068 -2.1740723 -0.09947586c-0.7805023 -0.011545181 -1.5991058 -0.0129880905 -2.508957 0.030205727c-0.90986633 0.043192863 -1.9582825 0.10733223 -2.95018 0.22895432c-0.9918823 0.12162304 -2.063919 0.31444073 -3.001175 0.50077915c-0.93725586 0.18633842 -1.7445831 0.38297367 -2.622345 0.6172514c-0.87776184 0.23427677 -1.6079559 0.40709114 -2.6441956 0.7884121c-1.0362549 0.38132 -2.5143585 0.99752426 -3.5733032 1.4995098c-1.0589447 0.50198555 -1.9473114 1.0373297 -2.7803345 1.5124044c-0.83303833 0.47507572 -1.4532776 0.82211494 -2.217865 1.3380451c-0.76460266 0.5159292 -1.4093323 0.9534731 -2.3697052 1.7575369c-0.9603729 0.8040619 -2.5201569 2.2243862 -3.3925476 3.066843c-0.872406 0.8424549 -1.320816 1.3920612 -1.8418579 1.9878922c-0.5210266 0.595829 -0.79792786 0.93722725 -1.2843475 1.5870914c-0.48640442 0.6498642 -1.1224823 1.5320644 -1.6341248 2.3120918c-0.5116272 0.7800293 -1.0194702 1.6265202 -1.4356995 2.3680782c-0.416214 0.74156 -0.6819458 1.2674103 -1.0616608 2.0812798c-0.37971497 0.8138714 -0.857605 1.8560677 -1.2166138 2.8019447c-0.3590088 0.9458771 -0.68582153 2.0370827 -0.93743896 2.873314c-0.25161743 0.83623505 -0.41334534 1.436203 -0.5722656 2.144081c-0.15892029 0.7078781 -0.27011108 1.4350052 -0.38124084 2.1031914c-0.11112976 0.6681824 -0.2066803 1.1768494 -0.28555298 1.9059067c-0.07888794 0.7290611 -0.15028381 1.6196442 -0.18772888 2.4684486c-0.037460327 0.8488045 -0.05152893 1.8003082 -0.037017822 2.6243782c0.014526367 0.82406616 0.04550171 1.4674187 0.12411499 2.3200378c0.07859802 0.8526192 0.21800232 1.9483337 0.34750366 2.795681c0.1295166 0.84734726 0.20890808 1.3678093 0.42956543 2.2884102c0.22065735 0.9206009 0.5392151 2.1367493 0.8943939 3.2351875c0.35516357 1.0984421 0.80752563 2.3539543 1.2366638 3.3554459c0.42915344 1.0014954 0.90548706 1.8344803 1.3381653 2.6535149c0.43267822 0.8190384 0.7340393 1.4317474 1.257904 2.2606964c0.52386475 0.828949 1.3269043 1.9544601 1.8852539 2.7129822c0.5583496 0.75852203 1.0467529 1.3426285 1.4648438 1.8381348c0.41809082 0.4955063 0.808197 0.8821945 1.0437012 1.134903c0.23550415 0.25270844 0.29135132 0.2526474 0.369339 0.38136292c0.07797241 0.12871552 0.060638428 0.08872223 0.098526 0.39092255c0.037887573 0.30220795 0.07041931 0.82884216 0.12878418 1.4222946c0.05836487 0.59345245 -0.15010071 -1.4284439 0.22140503 2.1384277c0.37150574 3.566864 1.5067291 14.446098 2.0076447 19.26278c0.50090027 4.816681 0.7328491 7.685463 0.997818 9.637291c0.26498413 1.9518204 0.43623352 1.6816254 0.5920563 2.0736542c0.1558075 0.39203644 0.20915222 0.19782257 0.34284973 0.27854156c0.13369751 0.080718994 0.296463 0.14919281 0.45933533 0.20578003c0.16285706 0.05659485 0.3582306 0.10849762 0.5178528 0.13375092c0.15962219 0.025253296 0.23382568 0.049682617 0.4398651 0.017791748c0.20603943 -0.0318985 0.5064087 -0.07443237 0.79637146 -0.20913696c0.2899475 -0.13470459 0.58758545 -0.39468384 0.94332886 -0.5990982c0.3557434 -0.20441437 -1.233078 0.76984406 1.1910858 -0.627388c2.4241638 -1.397232 10.065247 -5.8430557 13.353867 -7.7559967c3.2886047 -1.9129486 4.833908 -2.8316803 6.377777 -3.721672c1.5438843 -0.8899994 2.271347 -1.2674942 2.8854828 -1.6183014c0.61413574 -0.3508072 0.6109009 -0.37773895 0.79930115 -0.48653412c0.18840027 -0.108795166 0.22860718 -0.16222382 0.33110046 -0.16623688c0.102493286 -0.0040130615 0.1768341 0.10220337 0.2838745 0.14214325c0.107040405 0.03993225 0.12844849 0.02584076 0.3584137 0.097473145c0.22994995 0.071632385 0.23751831 0.07260895 1.0213013 0.33232117c0.7837677 0.25971985 0.064956665 0.04122162 3.6813202 1.2259674c3.6163788 1.1847458 14.250412 4.649544 18.016922 5.8825226c3.7664948 1.2329788 3.616272 1.2177505 4.582077 1.5153503c0.9658203 0.29760742 0.91970825 0.2557602 1.2127838 0.2702713c0.29309082 0.014511108 0.36442566 -0.112068176 0.5457306 -0.18318176c0.18130493 -0.07111359 0.40322876 -0.16622925 0.54211426 -0.24350739c0.1388855 -0.07727814 0.19625854 -0.12631989 0.291214 -0.22016144c0.094955444 -0.09384155 0.2086792 -0.21029663 0.27851868 -0.34288788c0.06982422 -0.13258362 0.09970093 -0.23903656 0.14048767 -0.45262146c0.040771484 -0.2135849 0.09033203 -0.55474854 0.10417175 -0.8288803c0.013824463 -0.27413177 0.015335083 -0.46341705 -0.021148682 -0.8159027c-0.036499023 -0.3524933 -0.11515808 -0.661911 -0.1978302 -1.2990265c-0.08268738 -0.6371155 -0.112335205 -0.7875519 -0.2982483 -2.5236893c-0.18591309 -1.7361298 -0.45309448 -4.3760757 -0.8172302 -7.89312c-0.364151 -3.5170517 -1.045639 -10.099007 -1.3676605 -13.2091675c-0.32202148 -3.1101685 -0.43904114 -4.240303 -0.5644684 -5.4518204c-0.1254425 -1.2115173 -0.14634705 -1.4134369 -0.18817139 -1.817276c-0.041809082 -0.40383148 -0.06958008 -0.45549774 -0.06271362 -0.60575104c0.006866455 -0.15026093 -0.006668091 -0.089920044 0.10395813 -0.295784c0.11061096 -0.20585632 0.30439758 -0.47927094 0.55978394 -0.9393921c0.2553711 -0.46012115 0.66825867 -1.2127762 0.97247314 -1.8213387c0.30421448 -0.6085663 0.5648346 -1.1624794 0.852829 -1.8300629c0.28797913 -0.66758347 0.5815582 -1.370491 0.8751068 -2.175438c0.29356384 -0.8049507 0.62501526 -1.7536888 0.88623047 -2.654255c0.26123047 -0.9005661 0.48587036 -1.7467613 0.68115234 -2.749134c0.19526672 -1.0023766 0.3742981 -2.3061142 0.49049377 -3.2651138c0.11621094 -0.95899963 0.16947937 -1.5701714 0.20672607 -2.4888878c0.037261963 -0.91871643 0.050369263 -2.0451736 0.016815186 -3.0234146c-0.033569336 -0.97824097 -0.11747742 -1.9033241 -0.2181549 -2.8460236c-0.10067749 -0.94269943 -0.205719 -1.8466797 -0.3859558 -2.810173z" fill-rule="evenodd"/><path fill="#ffae85" fill-opacity="0.6" d="m534.4786 54.85393l0 0c-0.42279053 -3.9699821 2.4528198 -7.5310516 6.4227905 -7.9538727l2.5357666 -0.27007294l0 0l14.58606 -1.5534935l26.845947 -2.85923c1.9064331 -0.20304489 3.8154297 0.3595581 5.307068 1.5640488c1.4916382 1.2044868 2.4436646 2.9521942 2.6466675 4.8586464l1.9137573 17.970707l0 0l1.1482544 10.782425l0 0c0.42279053 3.9699783 -2.4527588 7.5310516 -6.4227295 7.9538727l-26.845886 2.85923l-6.71875 6.167938l-7.8673706 -4.6144485l-2.5357666 0.27007294c-3.9699707 0.42282867 -7.531006 -2.452713 -7.9537964 -6.4226913l0 0l-1.1482544 -10.782425l0 0z" fill-rule="evenodd"/><path fill="#000000" fill-opacity="0.0" d="m542.5034 79.54007l47.71692 -4.6700516" fill-rule="evenodd"/><path stroke="#fff5f0" stroke-width="4.0" stroke-linejoin="round" stroke-linecap="butt" d="m542.5034 79.54007l47.71692 -4.6700516" fill-rule="evenodd"/><path fill="#000000" fill-opacity="0.0" d="m541.3233 68.458534l47.71692 -4.6700478" fill-rule="evenodd"/><path stroke="#fff5f0" stroke-width="4.0" stroke-linejoin="round" stroke-linecap="butt" d="m541.3233 68.458534l47.71692 -4.6700478" fill-rule="evenodd"/><path fill="#000000" fill-opacity="0.0" d="m540.1432 57.377003l47.71692 -4.6700478" fill-rule="evenodd"/><path stroke="#fff5f0" stroke-width="4.0" stroke-linejoin="round" stroke-linecap="butt" d="m540.1432 57.377003l47.71692 -4.6700478" fill-rule="evenodd"/><path fill="#ffae85" fill-opacity="0.6" d="m390.49118 132.84749l-0.7106323 -11.221764l0 0c-0.39245605 -6.1976013 5.1725464 -11.586029 12.429749 -12.0353775c7.257202 -0.44934845 13.458496 4.210533 13.850952 10.408142l0.7106018 11.221756z" fill-rule="evenodd"/><path fill="#ffae85" fill-opacity="0.6" d="m389.8998 96.530655l0 0c-0.38375854 -6.198143 4.4422913 -11.54081 10.779327 -11.933189l0 0c3.0431519 -0.18842316 6.0348816 0.81326294 8.317047 2.7846985c2.282135 1.9714279 3.6677856 4.751129 3.8520813 7.727577l0 0c0.38375854 6.198143 -4.442322 11.540817 -10.779358 11.933189l0 0c-6.337036 0.39237213 -11.785309 -4.3141327 -12.169098 -10.512276z" fill-rule="evenodd"/><path fill="#ffae85" fill-opacity="0.6" d="m411.94568 139.53448l-0.7106018 -11.221756l0 0c-0.39245605 -6.197609 5.172516 -11.586029 12.429718 -12.0353775c7.257202 -0.44934845 13.458496 4.210533 13.850952 10.408134l0.7106018 11.221756z" fill-rule="evenodd"/><path fill="#ffae85" fill-opacity="0.6" d="m411.3543 103.21766l0 0c-0.38375854 -6.198143 4.4422913 -11.540817 10.779327 -11.933189l0 0c3.0431519 -0.18842316 6.0348816 0.8132553 8.317047 2.7846909c2.282135 1.9714355 3.6677856 4.751129 3.8520813 7.727585l0 0c0.38375854 6.198143 -4.442322 11.54081 -10.779358 11.933182l0 0c-6.337036 0.39237976 -11.785309 -4.314125 -12.169098 -10.512268z" fill-rule="evenodd"/><path fill="#ffae85" fill-opacity="0.6" d="m370.02545 142.13008l-0.7106018 -11.221756l0 0c-0.39245605 -6.197609 5.1725464 -11.586029 12.429749 -12.0353775c7.257202 -0.44934845 13.458496 4.210533 13.850952 10.408134l0.7106018 11.221756z" fill-rule="evenodd"/><path fill="#ffae85" fill-opacity="0.6" d="m369.4341 105.813255l0 0c-0.38378906 -6.198143 4.4422913 -11.54081 10.779327 -11.933189l0 0c3.0431519 -0.18842316 6.0348816 0.81326294 8.317047 2.7846985c2.282135 1.9714279 3.6677856 4.7511215 3.8520813 7.727577l0 0c0.38375854 6.198143 -4.442322 11.540817 -10.779358 11.933189l0 0c-6.337036 0.39237213 -11.785309 -4.3141327 -12.169098 -10.512276z" fill-rule="evenodd"/><path fill="#ffae85" fill-opacity="0.6" d="m321.0338 411.06592c0.3487854 -0.9821167 1.5752563 -4.264435 1.9376831 -5.245514c0.36239624 -0.9810486 0.27676392 -0.5708313 0.23672485 -0.64089966c-0.040008545 -0.07003784 0.21704102 -0.099090576 -0.47695923 0.22055054c-0.69400024 0.3196106 -1.0126038 0.4659729 -3.6870422 1.6972656c-2.6744385 1.2312927 -10.124695 4.6613464 -12.359589 5.69046c-2.2348938 1.0291138 -0.85220337 0.34350586 -1.0497742 0.4842224c-0.1975708 0.14068604 -0.26412964 -0.028167725 -0.13565063 0.35998535c0.12850952 0.3881836 0.48284912 1.048706 0.9065857 1.9689941c0.42370605 0.9203186 0.5523987 1.1997986 1.6358032 3.5528564c1.083374 2.3530579 3.9482422 8.575378 4.8645325 10.565521c0.9162903 1.9901123 0.47457886 1.2320557 0.6332092 1.3752441c0.15859985 0.14318848 0.20184326 -0.25808716 0.31848145 -0.5161438c0.11663818 -0.25805664 0.051513672 -0.1394043 0.38131714 -1.0322266c0.32980347 -0.89279175 1.303772 -3.5293884 1.5975037 -4.3245544c0.2937317 -0.795166 0.07778931 -0.3776245 0.16488647 -0.44641113c0.08709717 -0.06878662 -0.20080566 -0.15634155 0.35775757 0.033691406c0.5585327 0.19003296 1.6436157 0.60754395 2.9935608 1.1065063c1.3499451 0.4989624 3.120514 1.1534119 5.106079 1.8873291c1.9855652 0.7338867 5.2787476 1.9611206 6.807312 2.5161133c1.5285339 0.5550232 1.5110779 0.5614319 2.3639526 0.8138733c0.85287476 0.2524109 1.770935 0.52783203 2.7532654 0.7007446c0.98236084 0.1729126 2.0789795 0.2930298 3.140808 0.3366394c1.0618591 0.0435791 2.2633667 -0.004333496 3.2303162 -0.075042725c0.96691895 -0.070739746 1.7218628 -0.1822815 2.571228 -0.3493042c0.8493347 -0.16699219 1.6391296 -0.3722229 2.5248413 -0.65270996c0.8857422 -0.28051758 1.8010559 -0.5713806 2.7895203 -1.030304c0.98846436 -0.45889282 1.981842 -0.9310913 3.1413574 -1.723175c1.1594849 -0.79208374 2.7822876 -2.0634155 3.8155518 -3.0293274c1.0332947 -0.96591187 1.6981506 -1.8675842 2.3840637 -2.7661438c0.6859436 -0.89852905 1.2043762 -1.7420349 1.7314453 -2.625183c0.5270996 -0.8831177 1.0058899 -1.5941162 1.4310608 -2.6736145c0.4251709 -1.0794678 0.8180237 -2.4139404 1.1199646 -3.8032837c0.30197144 -1.3893738 0.63397217 -2.9316406 0.6917114 -4.5328674c0.057739258 -1.6012573 -0.09777832 -3.498169 -0.34527588 -5.074646c-0.24746704 -1.5764465 -0.61816406 -2.9918213 -1.1396179 -4.3841553c-0.52145386 -1.392334 -1.4068298 -2.914032 -1.9891357 -3.969757c-0.5823364 -1.0557251 -0.87072754 -1.5487366 -1.5048218 -2.364563c-0.63409424 -0.81585693 -1.4200134 -1.6929321 -2.2997437 -2.5305786c-0.8797302 -0.83761597 -1.9468079 -1.7544861 -2.9786377 -2.4951782c-1.0318298 -0.74069214 -2.0159302 -1.3534546 -3.2123108 -1.9490356c-1.1964111 -0.59558105 -1.4683228 -0.67477417 -3.966095 -1.6244202c-2.4978027 -0.9496765 -7.6640015 -2.8327942 -11.020569 -4.0734863c-3.356598 -1.2406616 -7.31427 -2.7035217 -9.118988 -3.370575c-1.8047485 -0.66708374 -1.645752 -0.67089844 -1.7094421 -0.63186646c-0.063690186 0.0390625 0.1960144 0.17410278 1.3272705 0.8661194c1.1312561 0.6920166 3.3927612 2.0217285 5.4602966 3.2859802c2.0675354 1.2642212 5.0398865 3.1094666 6.9448853 4.2994385c1.9049683 1.1899414 2.7029724 1.660675 4.4850464 2.840271c1.7821045 1.179596 4.53479 2.971161 6.207489 4.237274c1.6726685 1.2660828 2.9397888 2.1081848 3.8285828 3.359314c0.8887634 1.2510986 1.286438 2.6589355 1.5040894 4.147339c0.21762085 1.4884338 0.15072632 2.997284 -0.1982727 4.7831726c-0.3489685 1.7858887 -1.0783997 4.2345886 -1.8956909 5.9321594c-0.81729126 1.6975708 -1.8912048 3.1171875 -3.0079956 4.253296c-1.1167908 1.1361389 -2.4822998 1.954834 -3.692749 2.563385c-1.2104187 0.60858154 -2.4633484 0.85635376 -3.5698853 1.0880737c-1.1065063 0.23175049 -1.9402161 0.40985107 -3.0692444 0.30236816c-1.1289978 -0.10748291 -2.532196 -0.5770874 -3.7048645 -0.9472656c-1.172699 -0.37020874 -1.3139954 -0.5212097 -3.3312378 -1.2739258c-2.017212 -0.75271606 -6.913727 -2.555481 -8.772156 -3.2424011c-1.8584595 -0.68692017 -1.8272095 -0.675354 -2.378479 -0.8791199c-0.551239 -0.20376587 -0.80010986 -0.17834473 -0.92910767 -0.34344482c-0.1289978 -0.16506958 -0.19366455 0.33502197 0.15515137 -0.6470642z" fill-rule="evenodd"/><path fill="#ffae85" fill-opacity="0.6" d="m564.1911 425.9442l-4.8966064 -2.4612122l0 0c-0.8209839 -0.4126587 -1.444458 -1.134552 -1.7332153 -2.006897c-0.2886963 -0.872345 -0.21911621 -1.8236389 0.19354248 -2.6446533l7.7372437 -15.393494c6.1035156E-5 -6.1035156E-5 1.2207031E-4 -9.1552734E-5 1.2207031E-4 -6.1035156E-5l11.0877075 5.57312l0 0c6.1035156E-5 3.0517578E-5 1.2207031E-4 9.1552734E-5 6.1035156E-5 1.5258789E-4l-7.7373047 15.393372l0 0c-0.85931396 1.7096558 -2.9418945 2.3989868 -4.6515503 1.5396729z" fill-rule="evenodd"/><path fill="#ffae85" fill-opacity="0.6" d="m592.0115 358.4675l4.8966064 2.4611816l0 0c0.8209839 0.4126587 1.444458 1.134552 1.7332153 2.006897c0.2886963 0.872345 0.21911621 1.8236389 -0.19354248 2.6446533l-7.7372437 15.393494c-6.1035156E-5 6.1035156E-5 -1.2207031E-4 9.1552734E-5 -1.8310547E-4 6.1035156E-5l-11.0876465 -5.57312l0 0c-6.1035156E-5 -3.0517578E-5 -1.2207031E-4 -9.1552734E-5 -6.1035156E-5 -1.5258789E-4l7.7372437 -15.393372l0 0c0.859375 -1.7096558 2.9419556 -2.3989868 4.6516113 -1.5396423z" fill-rule="evenodd"/><path fill="#ffae85" fill-opacity="0.6" d="m544.3629 378.2957l2.4611816 -4.896637l0 0c0.4126587 -0.8209839 1.1345825 -1.444458 2.006897 -1.7331848c0.8723755 -0.28875732 1.8236694 -0.21914673 2.6446533 0.19354248l15.393555 7.737213c0 3.0517578E-5 6.1035156E-5 9.1552734E-5 0 1.5258789E-4l-5.57312 11.0877075l0 0c0 6.1035156E-5 -6.1035156E-5 6.1035156E-5 -1.2207031E-4 3.0517578E-5l-15.393372 -7.737274l0 0c-1.7096558 -0.85931396 -2.3989868 -2.9418945 -1.5396729 -4.6515503z" fill-rule="evenodd"/><path fill="#ffae85" fill-opacity="0.6" d="m611.83966 406.116l-2.4611816 4.896637l0 0c-0.4126587 0.8209839 -1.1345825 1.444458 -2.006958 1.7331848c-0.87231445 0.28875732 -1.8236084 0.21914673 -2.6446533 -0.19354248l-15.393494 -7.737213c-6.1035156E-5 -3.0517578E-5 -6.1035156E-5 -9.1552734E-5 0 -1.5258789E-4l5.57312 -11.0877075l0 0c0 -3.0517578E-5 6.1035156E-5 -6.1035156E-5 1.2207031E-4 -3.0517578E-5l15.393372 7.737274l0 0c1.7096558 0.85931396 2.3989868 2.9418945 1.5396729 4.6515503z" fill-rule="evenodd"/><path fill="#ffae85" fill-opacity="0.6" d="m544.4071 406.22177l-1.7245483 -5.2102356l0 0c-0.28918457 -0.8735657 -0.21942139 -1.8262634 0.19378662 -2.6484375c0.41326904 -0.8221741 1.1362305 -1.4465332 2.0098267 -1.7356873l16.369385 -5.418274c6.1035156E-5 0 1.2207031E-4 0 1.2207031E-4 6.1035156E-5l3.9049683 11.797913l0 0c6.1035156E-5 6.1035156E-5 0 1.2207031E-4 -6.1035156E-5 1.2207031E-4l-16.369324 5.418152l0 0c-1.8191528 0.6021118 -3.7819824 -0.38446045 -4.3841553 -2.2036133z" fill-rule="evenodd"/><path fill="#ffae85" fill-opacity="0.6" d="m611.7955 378.1899l1.7245483 5.2102356l0 0c0.28918457 0.8735657 0.21942139 1.8262634 -0.19378662 2.6484375c-0.41326904 0.8222046 -1.1362305 1.4465332 -2.0098267 1.7356873l-16.369385 5.418274c-6.1035156E-5 3.0517578E-5 -1.2207031E-4 0 -1.2207031E-4 -6.1035156E-5l-3.9050293 -11.797913l0 0c0 -6.1035156E-5 6.1035156E-5 -9.1552734E-5 1.2207031E-4 -1.2207031E-4l16.369324 -5.4181213l0 0c1.8191528 -0.60214233 3.7819824 0.38442993 4.3841553 2.2035828z" fill-rule="evenodd"/><path fill="#ffae85" fill-opacity="0.6" d="m564.0854 358.5117l5.210205 -1.7245789l0 0c0.8735962 -0.28915405 1.8262329 -0.2194519 2.6484375 0.19381714c0.8222046 0.41323853 1.4465332 1.1362 1.7357178 2.0097656l5.418213 16.369415c6.1035156E-5 6.1035156E-5 0 1.2207031E-4 -6.1035156E-5 1.2207031E-4l-11.797852 3.9049988l0 0c-6.1035156E-5 3.0517578E-5 -1.2207031E-4 0 -1.8310547E-4 -6.1035156E-5l-5.418091 -16.369354l0 0c-0.60217285 -1.8191528 0.3843994 -3.7819824 2.2036133 -4.3841248z" fill-rule="evenodd"/><path fill="#ffae85" fill-opacity="0.6" d="m592.1172 425.9l-5.210205 1.7245789l0 0c-0.8735962 0.28915405 -1.8262329 0.2194519 -2.6484375 -0.19381714c-0.8222046 -0.41323853 -1.4465332 -1.1362 -1.7357178 -2.0097656l-5.418274 -16.369415c0 -6.1035156E-5 6.1035156E-5 -1.2207031E-4 1.2207031E-4 -1.2207031E-4l11.797852 -3.9049988l0 0c6.1035156E-5 -3.0517578E-5 1.2207031E-4 0 1.2207031E-4 6.1035156E-5l5.418152 16.369354l0 0c0.60217285 1.8191528 -0.38446045 3.7819824 -2.2036133 4.3841248z" fill-rule="evenodd"/><path fill="#ffae85" fill-opacity="0.6" d="m557.9166 382.06042l0 0c5.6051025 -11.15155 19.189087 -15.647858 30.340637 -10.042725l0 0c5.3551636 2.6916504 9.421753 7.400421 11.305115 13.090393c1.8834229 5.689972 1.4293213 11.895081 -1.2623901 17.250244l0 0c-5.6051025 11.15155 -19.189087 15.647858 -30.340637 10.042725l0 0c-11.15155 -5.6051025 -15.647827 -19.189087 -10.042725 -30.340637z" fill-rule="evenodd"/><path fill="#ffae85" fill-opacity="0.6" d="m572.5642 389.4232l0 0c1.5390015 -3.0618286 5.2686768 -4.296356 8.330505 -2.7573853l0 0c1.4703369 0.7390137 2.586853 2.0318909 3.1039429 3.5941467c0.5171509 1.5622559 0.39245605 3.2659607 -0.34655762 4.7362976l0 0c-1.5390015 3.0618286 -5.2686768 4.296356 -8.330505 2.7573853l0 0c-3.0618286 -1.538971 -4.2963257 -5.2686462 -2.7573853 -8.330444z" fill-rule="evenodd"/><path fill="#000000" fill-opacity="0.0" d="m741.3756 115.0423l71.339905 -19.115135" fill-rule="evenodd"/><path stroke="#ffae85" stroke-width="4.0" stroke-linejoin="round" stroke-linecap="butt" d="m741.3756 115.0423l71.339905 -19.115135" fill-rule="evenodd"/><path fill="#000000" fill-opacity="0.0" d="m741.3756 125.87386l71.339905 -19.115135" fill-rule="evenodd"/><path stroke="#ffae85" stroke-width="4.0" stroke-linejoin="round" stroke-linecap="butt" d="m741.3756 125.87386l71.339905 -19.115135" fill-rule="evenodd"/><path fill="#000000" fill-opacity="0.0" d="m741.3756 137.47447l53.377625 -14.316238" fill-rule="evenodd"/><path stroke="#ffae85" stroke-width="4.0" stroke-linejoin="round" stroke-linecap="butt" d="m741.3756 137.47447l53.377625 -14.316238" fill-rule="evenodd"/><path fill="#000000" fill-opacity="0.0" d="m749.2204 103.36447l10.375244 38.766464" fill-rule="evenodd"/><path stroke="#ffae85" stroke-width="4.0" stroke-linejoin="round" stroke-linecap="butt" d="m749.2204 103.36447l10.375244 38.766464" fill-rule="evenodd"/><path fill="#000000" fill-opacity="0.0" d="m771.85913 96.927925l10.375244 38.766457" fill-rule="evenodd"/><path stroke="#ffae85" stroke-width="4.0" stroke-linejoin="round" stroke-linecap="butt" d="m771.85913 96.927925l10.375244 38.766457" fill-rule="evenodd"/><path fill="#000000" fill-opacity="0.0" d="m792.9964 91.052605l7.158142 26.648598" fill-rule="evenodd"/><path stroke="#ffae85" stroke-width="4.0" stroke-linejoin="round" stroke-linecap="butt" d="m792.9964 91.052605l7.158142 26.648598" fill-rule="evenodd"/><path fill="#ffae85" fill-opacity="0.6" d="m749.2326 78.74587l12.036072 -6.9490128l14.880127 25.773308l-12.036072 6.9490128z" fill-rule="evenodd"/><path fill="#ffae85" fill-opacity="0.6" d="m776.1488 97.57017l-0.3661499 13.26387l-11.669922 -6.3148575z" fill-rule="evenodd"/><path fill="#ffae85" fill-opacity="0.6" d="m121.752945 452.46585l3.880478 -12.500458l0 0c2.1431274 -6.9038086 10.431122 -10.456909 18.511734 -7.9360657c8.080612 2.520874 12.893906 10.161072 10.750778 17.06488l-3.880478 12.500458z" fill-rule="evenodd"/><path fill="#ffae85" fill-opacity="0.6" d="m136.16962 412.71924l0 0c2.1527863 -6.9007874 9.618027 -10.710541 16.674072 -8.509308l0 0c3.3884277 1.0570374 6.2274017 3.387268 7.8923798 6.4779663c1.6649628 3.0907288 2.0195465 6.6888123 0.98573303 10.002686l0 0c-2.1527863 6.9007874 -9.618027 10.710541 -16.674072 8.509338l0 0c-7.0560455 -2.201233 -11.030914 -9.579895 -8.878113 -16.480682z" fill-rule="evenodd"/><path fill="#ffae85" fill-opacity="0.6" d="m154.426 408.91827l19.162827 -12.725616l8.528091 21.364166l-6.9227295 -2.1596375l-6.6321564 21.2594l-13.845459 -4.319275l6.6321564 -21.2594z" fill-rule="evenodd"/><path fill="#ffae85" fill-opacity="0.6" d="m774.4144 463.01993l2.0944824 -12.920746l0 0c1.1567993 -7.1359253 8.866821 -11.813202 17.220825 -10.44696c8.354065 1.3662415 14.188599 8.258606 13.03186 15.394531l-2.0945435 12.920746z" fill-rule="evenodd"/><path fill="#ffae85" fill-opacity="0.6" d="m783.1321 421.64636l0 0c1.166748 -7.1342773 8.026184 -11.950653 15.320984 -10.757629l0 0c3.5031128 0.572876 6.6401367 2.483307 8.721008 5.310974c2.0808105 2.8276367 2.9350586 6.340912 2.3747559 9.766937l0 0c-1.166748 7.1342773 -8.026184 11.950653 -15.320984 10.757629l0 0c-7.2948 -1.1929932 -12.262512 -7.9436035 -11.095764 -15.077911z" fill-rule="evenodd"/><path fill="#ffae85" fill-opacity="0.6" d="m755.38367 476.12033l2.0945435 -12.920746l0 0c1.1567383 -7.1359253 8.86676 -11.813202 17.220825 -10.44696c8.354004 1.3662415 14.188599 8.258606 13.031799 15.394531l-2.0944824 12.920746z" fill-rule="evenodd"/><path fill="#ffae85" fill-opacity="0.6" d="m764.1013 434.74677l0 0c1.1668091 -7.1342773 8.026245 -11.950653 15.321045 -10.75766l0 0c3.5030518 0.5729065 6.6400757 2.4833374 8.720947 5.3110046c2.0808716 2.8276367 2.9351196 6.340912 2.374817 9.766937l0 0c-1.166748 7.1342773 -8.026184 11.950653 -15.320984 10.757629l0 0c-7.2948 -1.1929932 -12.262573 -7.9436035 -11.095825 -15.077911z" fill-rule="evenodd"/><path fill="#ffae85" fill-opacity="0.6" d="m538.55597 479.55203l0 0c-6.940613 9.027405 -20.502502 13.685486 -34.553223 11.867859c-14.05069 -1.8175964 -25.9263 -9.766266 -30.256866 -20.251709z" fill-rule="evenodd"/><path fill="#ffae85" fill-opacity="0.6" d="m473.69702 471.14853l0 0c6.9406433 -9.027405 20.502533 -13.685486 34.553223 -11.867889c14.05072 1.817627 25.92633 9.766296 30.256897 20.25174z" fill-rule="evenodd"/><path fill="#ffae85" fill-opacity="0.6" d="m495.09833 473.8641l0 0c0.75964355 -6.154114 6.364868 -10.527191 12.519592 -9.767548l0 0c2.9556274 0.36480713 5.6452637 1.8886414 7.477234 4.236328c1.8319702 2.3476562 2.65625 5.3268433 2.2914429 8.282166l0 0c-0.75964355 6.154114 -6.364868 10.527191 -12.519623 9.767548l0 0c-6.154724 -0.7596741 -10.52832 -6.36438 -9.768646 -12.518494z" fill-rule="evenodd"/><path fill="#ff935d" d="m720.64435 237.2641l0 0c0 -8.7265625 7.07428 -15.800842 15.800842 -15.800842l63.201477 0l0 0c4.190613 0 8.209656 1.6647186 11.172852 4.62796c2.9632568 2.9632263 4.6279907 6.982239 4.6279907 11.172882l0 70.41406c0 8.7265625 -7.07428 15.800842 -15.800842 15.800842l-63.201477 0c-8.7265625 0 -15.800842 -7.07428 -15.800842 -15.800842z" fill-rule="evenodd"/><defs><linearGradient id="g3a3c7b5fccb_0_206.3" gradientUnits="userSpaceOnUse" gradientTransform="matrix(10.437191173879423 0.0 0.0 10.437191173879423 0.0 0.0)" spreadMethod="pad" x1="68.83734253475005" y1="20.649464846146415" x2="68.83522073119941" y2="31.086655804352375"><stop offset="0.0" stop-color="#ffece3"/><stop offset="1.0" stop-color="#ffc0a0"/></linearGradient></defs><path fill="url(#g3a3c7b5fccb_0_206.3)" d="m772.29974 215.70728c-0.5340576 -0.2642517 -2.2333374 -0.15283203 -3.006775 -0.06147766c-0.7734375 0.09136963 -1.369751 0.123809814 -1.6338501 0.60961914c-0.2640381 0.48582458 0.04119873 1.451477 0.049438477 2.3052826c0.008239746 0.85380554 0 1.6768646 0 2.8175507c0 1.140686 0 2.4406128 0 4.0265503c0 1.5859528 0 3.974472 0 5.4891205c0 1.5146484 0.09564209 2.8162842 0 3.5987854c-0.09564209 0.7825165 -0.33685303 0.89308167 -0.5739136 1.0962982c-0.23706055 0.2032013 -0.43432617 0.17373657 -0.84851074 0.12294006c-0.41412354 -0.05079651 -1.1893921 -0.2651062 -1.6365356 -0.42774963c-0.44714355 -0.16265869 -0.621521 -0.41622925 -1.0462036 -0.5481415c-0.42474365 -0.13191223 -0.88098145 -0.1925354 -1.5020142 -0.24334717c-0.6210327 -0.05079651 -1.3739014 -0.11227417 -2.2242432 -0.061462402c-0.85028076 0.05079651 -2.1257935 0.18313599 -2.8777466 0.36627197c-0.7518921 0.18315125 -0.9907837 0.36671448 -1.6337891 0.73257446c-0.6430054 0.36584473 -1.6031494 0.9340668 -2.2242432 1.4625702c-0.6210327 0.5285034 -0.9244385 0.8341675 -1.5020142 1.7084656c-0.57751465 0.8742981 -1.5601196 2.3274689 -1.9633179 3.5373077c-0.40319824 1.2098541 -0.48876953 2.542633 -0.45581055 3.7217407c0.032958984 1.1791077 0.19586182 2.224594 0.6535034 3.3529053c0.4576416 1.1282959 1.2860107 2.4713287 2.0924072 3.4169312c0.8063965 0.94558716 1.8740845 1.7178497 2.7459106 2.256607c0.8718262 0.53874207 1.5807495 0.8132477 2.4851074 0.9758911c0.9042969 0.16264343 2.080017 0.05079651 2.940857 0c0.86083984 -0.05079651 1.5377197 -0.11141968 2.2242432 -0.30480957c0.6864624 -0.1933899 1.3061523 -0.6010742 1.8946533 -0.8555145c0.588562 -0.25442505 1.1679688 -0.66127014 1.6365967 -0.67108154c0.46862793 -0.00982666 0.95739746 0.07342529 1.1752319 0.61216736c0.21789551 0.5387573 0.10986328 1.8583221 0.13183594 2.620346c0.021972656 0.7620239 0 0.37609863 0 1.9517822c0 1.5757141 0.076416016 6.0180664 0 7.502411c-0.076416016 1.4843445 0.31530762 1.1697083 -0.45855713 1.403656c-0.7739258 0.23391724 -2.6375122 0 -4.1848145 0c-1.5473633 0 -3.7042847 0 -5.099182 0c-1.3949585 0 -2.2242432 -0.09136963 -3.2704468 0c-1.0462036 0.09133911 -2.189392 0.20233154 -3.006775 0.5481262c-0.8173828 0.34579468 -1.4067993 0.89608765 -1.8974609 1.5266113c-0.4906006 0.6305237 -0.8173218 1.3216858 -1.0462036 2.2566223c-0.2288208 0.934906 -0.3922119 2.3872375 -0.3267212 3.3528748c0.06542969 0.9656677 0.47961426 1.556488 0.7194214 2.44104c0.23980713 0.884552 0.61053467 1.8600159 0.7194214 2.866211c0.108947754 1.0062256 0.29382324 2.1443481 -0.06591797 3.171051c-0.35968018 1.0267029 -1.2860107 2.4196777 -2.0923462 2.9891663c-0.8063965 0.5694885 -1.8961182 0.4986267 -2.7459717 0.4277649c-0.8498535 -0.07086182 -1.7976685 -0.4363098 -2.3532715 -0.8529663c-0.555603 -0.4166565 -0.7294922 -0.9656372 -0.98028564 -1.6469727c-0.25079346 -0.68133545 -0.43707275 -1.6785889 -0.5244751 -2.44104c-0.087402344 -0.7624512 -0.15283203 -1.4527588 0 -2.133667c0.15289307 -0.6809082 0.67736816 -1.118042 0.9171753 -1.9517822c0.23980713 -0.83374023 0.5107422 -1.9321594 0.5217285 -3.0506592c0.010986328 -1.1184998 -0.074645996 -2.6638794 -0.45587158 -3.6602783c-0.3812256 -0.9963684 -1.1775513 -1.7489929 -1.831543 -2.3180542c-0.6539917 -0.5690613 -1.2750244 -0.9135742 -2.0923462 -1.0963135c-0.8173828 -0.18270874 -1.4384155 0 -2.8118896 0c-1.3734131 0 -3.3687744 0 -5.42865 0c-2.0599365 0 -5.3289795 0 -6.930786 0c-1.6017456 0 -2.0164185 -0.05419922 -2.6799927 0c-0.66363525 0.054229736 -1.1592407 0.011962891 -1.3015747 0.32531738c-0.14233398 0.3133545 0.37298584 0.9075928 0.4475708 1.554779c0.07458496 0.6471863 -0.2741089 1.8719788 0 2.3283386c0.27416992 0.45635986 0.8050537 0.34152222 1.6448364 0.40982056c0.8397827 0.06829834 1.4008789 0 3.393982 0c1.993042 0 6.6245117 0 8.564514 0c1.9400024 0 2.356018 -0.07385254 3.0754395 0c0.7194824 0.07385254 1.0123291 0.12506104 1.2412109 0.44311523c0.2288208 0.3180542 0.20819092 0.82476807 0.1317749 1.4651184c-0.076416016 0.64038086 -0.36157227 1.4928894 -0.59039307 2.3770142c-0.2288208 0.88412476 -0.6626587 1.8399353 -0.7825928 2.9277039c-0.11987305 1.087738 -0.05670166 2.5007935 0.06317139 3.5987854c0.11993408 1.097992 0.30755615 2.064087 0.65631104 2.9891663c0.34869385 0.92510986 0.8585205 1.8092346 1.4360962 2.561432c0.5775757 0.75219727 1.2333984 1.4535828 2.0292358 1.9517822c0.79589844 0.49819946 1.6347656 0.86447144 2.7459717 1.037384c1.111145 0.17288208 2.8095093 0.16265869 3.9211426 0c1.1116943 -0.16265869 1.8659058 -0.47769165 2.7487183 -0.9758911c0.8828125 -0.49819946 1.8182373 -1.22052 2.5482178 -2.0132751c0.72991943 -0.7927551 1.3953857 -1.7165833 1.831543 -2.7432861c0.4360962 -1.0267029 0.697876 -2.2070923 0.78533936 -3.4169312c0.087402344 -1.2098389 -0.08654785 -2.7441406 -0.26086426 -3.8421326c-0.17437744 -1.097992 -0.57806396 -1.8920288 -0.78533936 -2.745819c-0.20733643 -0.8538208 -0.5130615 -1.797699 -0.45861816 -2.3770142c0.054504395 -0.5793152 0.32769775 -0.91571045 0.78533936 -1.0988464c0.45770264 -0.18313599 0.8709717 0 1.9606323 0c1.0896606 0 3.0516357 0 4.5774536 0c1.5258179 0 3.4333496 0 4.5774536 0c1.144165 0 1.8297119 -0.20321655 2.2873535 0c0.45770264 0.20321655 0.3821411 0.598938 0.45861816 1.2192383c0.076416016 0.6203003 0 1.3131409 0 2.5025024c0 1.1893616 0 2.98703 0 4.633606c0 1.6465759 0 3.883545 0 5.2457886c0 1.3622437 -0.14190674 2.0534058 0 2.9277039c0.1418457 0.8742981 0.50250244 1.6469727 0.8511963 2.3180847c0.34875488 0.67108154 0.72906494 1.2204895 1.2412109 1.7084656c0.51208496 0.48794556 0.9921875 0.9955139 1.8314819 1.2192078c0.83935547 0.22372437 2.3656616 0.21432495 3.2045288 0.12295532c0.8388672 -0.09133911 1.1098022 -0.5387573 1.8287964 -0.67108154c0.71899414 -0.13235474 1.7546387 -0.23480225 2.4850464 -0.12295532c0.7304077 0.111846924 1.2869263 0.35690308 1.8974609 0.79403687c0.61047363 0.4371643 1.3404541 1.1582031 1.765625 1.8288574c0.4251709 0.6706543 0.6763916 1.4527588 0.78533936 2.1951294c0.108947754 0.7424011 0.06451416 1.5270386 -0.13183594 2.2591858c-0.19628906 0.7321167 -0.555542 1.585083 -1.0461426 2.1336365c-0.49066162 0.548584 -1.2434692 0.9037781 -1.8974609 1.1577759c-0.6539917 0.2539978 -1.2636108 0.38635254 -2.0264893 0.36627197c-0.76293945 -0.020050049 -1.8210449 -0.30395508 -2.5509644 -0.48666382c-0.72998047 -0.18270874 -1.1862793 -0.51782227 -1.8287964 -0.60961914c-0.6425781 -0.09176636 -1.3615112 -0.09347534 -2.0264893 0.058929443c-0.664978 0.15240479 -1.4508057 0.46914673 -1.9633789 0.85549927c-0.51257324 0.38635254 -0.7418213 0.8017273 -1.1120605 1.4625854c-0.3703003 0.66082764 -0.9135132 1.5364075 -1.109375 2.5025024c-0.19586182 0.96606445 -0.05493164 1.1594543 -0.06591797 3.2939758c-0.010986328 2.1345215 0 7.592041 0 9.513092c0 1.9210815 -0.15240479 1.5761414 0 2.0132751c0.15240479 0.4371643 0.4352417 0.60961914 0.9144287 0.60961914c0.47912598 0 1.3175659 -0.4269104 1.9605713 -0.60961914c0.6430054 -0.18270874 1.5811768 -0.04949951 1.8974609 -0.48666382c0.31622314 -0.4371338 0 -1.2414246 0 -2.1362305c0 -0.8947754 0 -1.5957642 0 -3.232483c0 -1.6367493 -0.054504395 -5.134369 0 -6.587982c0.05444336 -1.4536133 0.09790039 -1.7170105 0.3267212 -2.133667c0.2288208 -0.4166565 0.5775757 -0.41708374 1.0462036 -0.36627197c0.46862793 0.050811768 1.1226196 0.52893066 1.765625 0.67108154c0.6430054 0.14215088 1.3405151 0.18185425 2.0924072 0.18185425c0.7519531 0 1.6018066 -0.049926758 2.4191895 -0.18185425c0.8173828 -0.13189697 1.6022339 -0.26382446 2.4850464 -0.60961914c0.8828125 -0.34579468 2.0489502 -0.8448181 2.8118286 -1.4651184c0.76293945 -0.6203003 1.2645264 -1.2196655 1.765686 -2.2566223c0.50109863 -1.0369263 1.0667725 -2.8162537 1.2411499 -3.9650574c0.17437744 -1.1488037 -0.03161621 -1.9419861 -0.19500732 -2.9277039c-0.16333008 -0.9857178 -0.41461182 -2.1025085 -0.78533936 -2.9866028c-0.3706665 -0.88412476 -0.8722534 -1.697815 -1.4388428 -2.3180847c-0.56658936 -0.6203003 -1.2086792 -0.9460144 -1.9605713 -1.403656c-0.7519531 -0.4576416 -1.4503174 -1.0779419 -2.5509644 -1.3421936c-1.100708 -0.2642517 -2.8324585 -0.26382446 -4.0530396 -0.24334717c-1.22052 0.020507812 -2.4745483 0.31549072 -3.2703857 0.3663025c-0.7958374 0.05078125 -1.2539673 0.35516357 -1.5047607 -0.06149292c-0.25079346 -0.4166565 0 -1.6759949 0 -2.438446c0 -0.7624512 0 -0.99768066 0 -2.1362305c0 -1.1385498 0 -3.2009277 0 -4.6950684c0 -1.4941711 0 -3.0600586 0 -4.2698975c0 -1.2098389 -0.13092041 -2.3893738 0 -2.9891663c0.13085938 -0.5997925 0.31671143 -0.5080261 0.78533936 -0.60961914c0.46862793 -0.10159302 0.98028564 0 2.0264893 0c1.0462036 0 2.9536743 0 4.2506714 0c1.2969971 0 2.6159668 -0.030303955 3.531311 0c0.9152832 0.030303955 1.5683594 -0.021362305 1.9605713 0.18185425c0.3922119 0.20321655 0.4251709 0.6002197 0.3927002 1.037384c-0.03253174 0.4371338 -0.402771 0.90460205 -0.5876465 1.5855103c-0.18487549 0.6809082 -0.3798828 1.5543518 -0.5217285 2.499939c-0.14190674 0.94558716 -0.35101318 1.9940796 -0.3295288 3.1736145c0.02154541 1.1795044 0.15332031 2.7449646 0.45855713 3.903595c0.30529785 1.1585999 0.8279419 2.184021 1.3729858 3.0480652c0.54504395 0.8640747 1.1235352 1.5159302 1.8974609 2.1362305c0.77386475 0.6203003 1.7431641 1.2909546 2.7459106 1.5855103c1.0027466 0.29458618 2.3441162 0.21261597 3.2703857 0.18188477c0.92633057 -0.030761719 1.4920044 -0.11227417 2.2874146 -0.3663025c0.7953491 -0.2539978 1.6786499 -0.5886841 2.4850464 -1.1577454c0.8063965 -0.5690613 1.7756958 -1.5244751 2.3532715 -2.2566223c0.57751465 -0.7321472 0.78533936 -1.3024902 1.1120605 -2.1362305c0.32678223 -0.83374023 0.7720947 -1.7886963 0.84851074 -2.866211c0.076416016 -1.0775146 -0.21557617 -2.5417786 -0.38989258 -3.5987854c-0.17437744 -1.0570068 -0.43798828 -1.9710083 -0.65631104 -2.7432861c-0.21826172 -0.77227783 -0.56658936 -1.3007812 -0.6535034 -1.8903198c-0.0869751 -0.5895691 -0.1359253 -1.3110352 0.1317749 -1.6470032c0.26776123 -0.33596802 0.5158081 -0.30737305 1.4745483 -0.36883545c0.95880127 -0.061462402 2.5734253 0 4.2781982 0c1.704773 0 4.446106 0 5.9504395 0c1.5042725 0 2.3779907 0.16223145 3.0754395 0c0.69744873 -0.16223145 0.9569702 -0.5161133 1.109375 -0.97332764c0.15234375 -0.45721436 -0.04260254 -1.2107239 -0.19500732 -1.7699585c-0.15240479 -0.5592346 -0.5015869 -1.1991577 -0.7194214 -1.5855103c-0.21783447 -0.38635254 0.09887695 -0.61047363 -0.5876465 -0.73257446c-0.6864624 -0.12210083 -2.2996826 0 -3.53125 0c-1.2315674 0 -2.4956055 0 -3.8580322 0c-1.3624268 0 -3.1069946 0 -4.3165894 0c-1.2095947 0 -2.0255737 -0.17288208 -2.940918 0c-0.9152832 0.1729126 -1.831543 0.5187073 -2.5509644 1.037384c-0.7194214 0.51867676 -1.3843994 1.2717285 -1.765625 2.0747375c-0.3812256 0.80300903 -0.47827148 1.848938 -0.5217285 2.7432861c-0.04345703 0.89434814 0.07598877 1.8501892 0.26086426 2.6228943c0.18487549 0.7727051 0.63067627 1.2610779 0.84851074 2.0132751c0.21783447 0.75219727 0.3821411 1.7477417 0.45855713 2.499939c0.076416016 0.75219727 0.06542969 1.3626709 0 2.0132751c-0.06542969 0.65060425 -0.15289307 1.3208313 -0.3927002 1.8903198c-0.23980713 0.5694885 -0.5015869 1.0992737 -1.0462036 1.5266113c-0.54455566 0.42733765 -1.338623 0.9562683 -2.2214355 1.037384c-0.8828125 0.081085205 -2.2686157 -0.11355591 -3.0754395 -0.5507202c-0.80682373 -0.4371338 -1.3734131 -1.4113464 -1.765625 -2.072174c-0.3922119 -0.66085815 -0.5116577 -1.1304321 -0.5876465 -1.8928833c-0.07598877 -0.7624512 -0.010070801 -1.8382568 0.13183594 -2.6818237c0.1418457 -0.8435669 0.4906006 -1.606842 0.7194214 -2.379547c0.2288208 -0.7727051 0.5446167 -1.3823242 0.6535034 -2.2566223c0.108947754 -0.8742981 0.13092041 -2.1861572 0 -2.9891663c-0.13085938 -0.80300903 -0.41461182 -1.229065 -0.78533936 -1.8288574c-0.3706665 -0.5997925 -0.88323975 -1.403656 -1.4388428 -1.769928c-0.555603 -0.36627197 -1.2081909 -0.31591797 -1.8947144 -0.4277649c-0.6864624 -0.111846924 -0.42608643 -0.20275879 -2.2241821 -0.24331665c-1.7981567 -0.04055786 -6.777405 0.010223389 -8.564575 0c-1.7871094 -0.010253906 -1.6416016 0.033294678 -2.1582642 -0.06149292c-0.51672363 -0.09475708 -0.7849121 0.20407104 -0.94189453 -0.5071411c-0.15698242 -0.7112427 0 -2.0457458 0 -3.7601624c0 -1.714447 0.01739502 -4.8487854 0 -6.5264893c-0.01739502 -1.6777344 0.043945312 -2.6045532 -0.10430908 -3.5398865c-0.14831543 -0.9353485 -0.3711548 -1.4420776 -0.78533936 -2.0721893c-0.41418457 -0.6301117 -1.03479 -1.3118744 -1.6997681 -1.7084656c-0.664978 -0.3965912 -1.5161743 -0.5694885 -2.2901 -0.6710968c-0.77386475 -0.10159302 -1.546875 -0.07086182 -2.3532715 0.06147766c-0.8063965 0.13233948 -1.7550659 0.4986267 -2.4850464 0.7325592c-0.72998047 0.23394775 -1.1647339 0.5391846 -1.8947144 0.6710968c-0.72991943 0.13191223 -1.7875977 0.27322388 -2.4850464 0.120391846c-0.69744873 -0.15283203 -1.1546631 -0.61047363 -1.6997681 -1.037384c-0.54504395 -0.42689514 -1.1999512 -0.9955292 -1.5706177 -1.5240326c-0.37072754 -0.5285187 -0.49017334 -0.986145 -0.65356445 -1.6470032c-0.16339111 -0.6608429 -0.3922119 -1.5355682 -0.32678223 -2.3180695c0.06549072 -0.7825165 0.37072754 -1.7165833 0.7194824 -2.376999c0.34869385 -0.66041565 0.92626953 -1.1483765 1.3729248 -1.5855255c0.4467163 -0.43714905 0.83843994 -0.74238586 1.3070679 -1.0373688c0.46862793 -0.29499817 0.9272461 -0.6002197 1.5047607 -0.7325592c0.5775757 -0.13233948 1.3830566 -0.16308594 1.9606323 -0.06147766c0.5775757 0.10159302 0.8942261 0.4473877 1.5047607 0.67108154c0.61053467 0.2237091 1.3409424 0.54901123 2.1583252 0.6710968c0.8173218 0.12210083 1.9285278 0.13276672 2.7459106 0.06147766c0.8173828 -0.07128906 1.4827881 -0.14344788 2.1583252 -0.4892273c0.6754761 -0.34579468 1.3935547 -0.9451752 1.8946533 -1.5855255c0.50115967 -0.64035034 0.90478516 -1.382309 1.1121216 -2.256607c0.20733643 -0.8742981 0.109802246 -1.9829559 0.1317749 -2.9891663c0.021972656 -1.0062103 0 -1.3097382 0 -3.0480957c0 -1.7383423 0 -5.4912567 0 -7.382004c0 -1.8907471 0 -3.0173492 0 -3.9625092c0 -0.9451599 0.032958984 -1.1697235 0 -1.7084656c-0.032958984 -0.5387573 0.33642578 -1.2597961 -0.19769287 -1.5240479z" fill-rule="evenodd"/></g></svg>